<?xml version="1.0" standalone="no"?>
<!DOCTYPE svg PUBLIC "-//W3C//DTD SVG 20010904//EN"
 "http://www.w3.org/TR/2001/REC-SVG-20010904/DTD/svg10.dtd">
<svg version="1.0" xmlns="http://www.w3.org/2000/svg"
 width="500.000000pt" height="500.000000pt" viewBox="0 0 500.000000 500.000000"
 preserveAspectRatio="xMidYMid meet">
<metadata>
Created by potrace 1.14, written by Peter Selinger 2001-2017
</metadata>
<g transform="translate(0.000000,500.000000) scale(0.100000,-0.100000)"
fill="#000000" stroke="none">
<path d="M1716 2524 c-13 -12 -16 -41 -16 -149 0 -158 3 -165 85 -165 75 0 85
13 85 106 l0 74 -40 0 c-36 0 -40 -2 -40 -25 0 -16 6 -25 15 -25 25 0 20 -67
-5 -75 -40 -13 -50 10 -50 110 0 69 4 96 15 105 23 19 50 8 53 -23 3 -21 9
-27 28 -27 21 0 24 4 24 39 0 55 -20 71 -85 71 -35 0 -59 -5 -69 -16z"/>
<path d="M1938 2529 c-16 -9 -18 -27 -18 -154 0 -164 1 -165 83 -165 71 0 77
13 77 168 0 153 -5 162 -78 162 -26 0 -55 -5 -64 -11z m87 -154 l0 -110 -25 0
c-25 0 -25 1 -28 99 -3 116 0 129 30 124 22 -3 23 -6 23 -113z"/>
<path d="M2137 2522 c-14 -15 -17 -40 -17 -149 0 -151 6 -163 81 -163 78 0 84
10 87 152 3 159 -3 172 -79 176 -44 2 -59 -1 -72 -16z m88 -147 c0 -103 -1
-110 -20 -110 -19 0 -20 8 -23 113 -3 113 -3 113 20 110 22 -3 23 -6 23 -113z"/>
<path d="M2330 2375 l0 -165 64 0 c94 0 96 3 96 165 0 162 -2 165 -96 165
l-64 0 0 -165z m108 3 c2 -99 1 -107 -18 -113 -11 -3 -24 -3 -30 0 -11 7 -14
208 -3 219 4 4 16 6 28 4 18 -3 20 -11 23 -110z"/>
<path d="M2640 2375 l0 -165 63 0 c88 0 102 13 101 87 -1 32 -2 67 -2 78 0 11
1 45 2 76 2 78 -10 89 -95 89 l-69 0 0 -165z m105 70 c0 -34 -3 -40 -22 -43
-21 -3 -23 1 -23 43 0 42 2 46 23 43 19 -3 22 -9 22 -43z m0 -140 c0 -34 -3
-40 -22 -43 -21 -3 -23 1 -23 43 0 42 2 46 23 43 19 -3 22 -9 22 -43z"/>
<path d="M2850 2375 l0 -165 25 0 25 0 0 165 0 165 -25 0 -25 0 0 -165z"/>
<path d="M2940 2515 c0 -20 5 -25 25 -25 l25 0 0 -140 0 -140 30 0 30 0 0 140
0 140 25 0 c20 0 25 5 25 25 0 25 -1 25 -80 25 -79 0 -80 0 -80 -25z"/>
<path d="M3140 2375 l0 -165 80 0 c78 0 80 1 80 24 0 23 -4 25 -52 28 l-53 3
-3 43 -3 42 45 0 c42 0 46 2 46 25 0 23 -4 25 -45 25 l-45 0 0 45 0 45 55 0
c52 0 55 1 55 25 0 25 -1 25 -80 25 l-80 0 0 -165z"/>
</g>
</svg>
