<?xml version="1.0" standalone="no"?>
<!DOCTYPE svg PUBLIC "-//W3C//DTD SVG 20010904//EN"
 "http://www.w3.org/TR/2001/REC-SVG-20010904/DTD/svg10.dtd">
<svg version="1.0" xmlns="http://www.w3.org/2000/svg"
 width="512.000000pt" height="512.000000pt" viewBox="0 0 512.000000 512.000000"
 preserveAspectRatio="xMidYMid meet">
<metadata>
Created by potrace 1.14, written by Peter Selinger 2001-2017
</metadata>
<g transform="translate(0.000000,512.000000) scale(0.100000,-0.100000)"
fill="#000000" stroke="none">
<path d="M2845 4922 c-16 -2 -34 -7 -40 -12 -5 -4 -53 -8 -107 -9 -53 0 -108
-5 -123 -11 -14 -5 -40 -10 -58 -10 -30 0 -162 -32 -202 -50 -38 -16 -88 -30
-110 -30 -24 0 -129 -52 -160 -80 -11 -10 -40 -28 -65 -40 -25 -13 -73 -42
-106 -66 -34 -24 -65 -44 -69 -44 -16 0 -101 -86 -132 -133 -17 -27 -35 -67
-38 -88 -6 -33 -17 -48 -65 -87 -66 -54 -89 -92 -131 -217 -42 -125 -47 -156
-45 -270 2 -82 7 -115 32 -183 16 -46 41 -97 56 -114 26 -29 26 -31 26 -181 0
-122 3 -165 19 -217 12 -41 17 -76 12 -95 -10 -47 -10 -123 1 -130 6 -3 10 3
10 14 0 12 6 21 14 21 12 0 15 -18 14 -92 -2 -187 4 -313 18 -343 7 -16 15
-48 18 -70 2 -22 9 -39 15 -37 6 1 11 -5 11 -14 0 -8 5 -12 10 -9 6 4 13 -7
16 -24 4 -17 10 -31 15 -31 14 0 11 -54 -3 -68 -10 -10 -8 -14 9 -18 17 -5 23
-16 28 -55 4 -27 11 -52 17 -55 14 -9 29 17 24 41 -3 11 -16 63 -30 115 -27
105 -66 383 -66 471 0 31 4 79 9 106 6 28 15 106 21 174 16 195 56 288 117
273 13 -4 23 -2 23 2 1 5 9 19 20 32 18 22 21 22 85 11 54 -9 72 -9 93 2 20
11 26 11 29 2 7 -20 31 -15 29 5 0 9 5 16 12 14 7 -1 37 12 68 29 44 25 67 32
112 31 48 0 53 2 32 10 -45 18 -3 20 91 3 51 -9 95 -17 97 -19 2 -3 36 7 75
20 39 13 89 24 111 24 41 0 143 -14 175 -25 18 -5 141 102 141 124 0 6 12 17
28 25 15 8 44 31 66 51 30 30 40 35 47 24 6 -11 11 -11 21 -1 6 6 24 12 40 12
23 0 28 -5 34 -35 6 -34 18 -49 39 -50 31 -3 65 -19 65 -32 0 -9 8 -13 21 -11
38 5 59 -52 57 -150 -3 -79 -2 -83 17 -77 41 13 90 5 110 -19 11 -13 27 -26
36 -29 10 -3 20 -29 28 -76 7 -39 18 -74 25 -79 12 -7 29 -98 58 -305 14 -100
3 -248 -32 -427 -11 -57 -19 -111 -18 -119 4 -22 55 60 63 102 4 19 20 48 36
63 22 21 29 37 29 67 0 21 -5 48 -11 59 -8 15 -8 22 1 28 7 4 9 16 6 26 -3 11
-7 56 -7 100 -2 71 1 86 25 127 31 52 27 72 -11 62 -29 -7 -30 -19 11 140 14
55 33 117 41 139 9 21 21 96 27 167 7 71 16 129 20 129 11 0 10 38 -2 60 -8
14 -6 21 6 28 13 7 14 13 5 29 -5 11 -8 23 -5 26 3 3 -1 18 -9 33 -11 20 -12
36 -5 62 6 21 6 44 0 61 -10 30 -5 78 10 98 6 7 6 19 0 30 -14 29 -7 117 11
144 22 31 21 39 -3 39 -23 0 -23 5 -11 124 7 59 5 90 -4 117 -8 20 -11 39 -9
42 8 7 -37 77 -46 72 -5 -3 -11 8 -15 25 -4 16 -12 33 -19 37 -6 5 -27 27 -45
51 -20 25 -56 54 -90 71 -31 16 -81 41 -111 57 -30 15 -62 31 -70 36 -28 15
-65 32 -75 33 -5 1 -23 7 -38 13 -16 7 -32 12 -36 12 -5 0 -39 23 -76 50 -49
36 -77 50 -101 50 -18 0 -39 6 -46 13 -7 7 -40 26 -73 42 -33 16 -64 31 -69
33 -5 3 -6 0 -2 -7 4 -6 1 -11 -8 -11 -8 0 -17 4 -20 9 -8 12 -35 17 -71 13z
m230 -110 c-6 -7 -35 18 -35 31 0 5 9 2 20 -8 11 -10 18 -20 15 -23z m-19
-1228 c-11 -7 -22 -11 -25 -8 -3 3 3 12 13 20 11 7 22 11 25 8 3 -3 -3 -12
-13 -20z m-289 -70 c-3 -3 -12 -4 -19 -1 -8 3 -5 6 6 6 11 1 17 -2 13 -5z m56
-1 c-7 -2 -21 -2 -30 0 -10 3 -4 5 12 5 17 0 24 -2 18 -5z m-233 -49 c0 -12
-29 -33 -66 -49 -32 -13 -45 -14 -86 -3 -26 6 -48 15 -48 19 0 10 28 19 60 19
16 0 31 4 34 8 5 9 106 14 106 6z m860 -104 c0 -5 -5 -10 -11 -10 -5 0 -7 5
-4 10 3 6 8 10 11 10 2 0 4 -4 4 -10z m280 -945 c0 -8 -4 -17 -10 -20 -6 -4
-10 5 -10 20 0 15 4 24 10 20 6 -3 10 -12 10 -20z m-34 -92 c-11 -11 -19 6
-11 24 8 17 8 17 12 0 3 -10 2 -21 -1 -24z"/>
<path d="M1978 3160 c-10 -6 -18 -18 -18 -25 0 -8 -4 -15 -9 -15 -10 0 -71
-55 -71 -64 0 -3 15 4 34 14 26 16 54 21 127 22 81 2 105 -2 172 -26 43 -16
80 -32 82 -37 3 -4 -16 -11 -42 -15 l-46 -7 64 -17 c35 -10 90 -25 122 -34 32
-9 65 -16 72 -16 25 0 17 27 -16 54 -25 22 -29 31 -24 54 l6 29 -103 26 c-218
55 -325 72 -350 57z m87 -40 c-3 -5 -17 -10 -31 -10 -14 0 -22 4 -19 10 3 6
17 10 31 10 14 0 22 -4 19 -10z"/>
<path d="M3349 3141 c17 -11 -3 -25 -21 -15 -7 4 -4 -2 6 -14 11 -12 29 -22
42 -22 12 0 35 -5 50 -10 20 -8 29 -8 35 2 11 18 2 27 -48 49 -46 20 -91 27
-64 10z"/>
<path d="M1887 3133 c-4 -3 -7 -11 -7 -17 0 -6 5 -5 12 2 6 6 9 14 7 17 -3 3
-9 2 -12 -2z"/>
<path d="M3102 3120 c-87 -9 -116 -31 -126 -90 -4 -23 -12 -40 -22 -42 -13 -3
-13 -6 -1 -22 13 -18 15 -18 78 2 35 11 78 24 94 28 29 7 29 8 -15 15 -25 4
-58 4 -74 1 -20 -3 -27 -2 -22 6 3 6 14 11 24 10 26 0 196 62 204 75 19 30 2
32 -140 17z m-102 -104 c0 -3 -4 -8 -10 -11 -5 -3 -10 -1 -10 4 0 6 5 11 10
11 6 0 10 -2 10 -4z"/>
<path d="M3270 3110 c0 -5 4 -10 9 -10 5 0 18 -3 28 -7 17 -6 17 -6 1 10 -18
19 -38 22 -38 7z"/>
<path d="M1980 2967 c-14 -7 -27 -21 -29 -32 -3 -19 -2 -19 15 -3 11 9 33 24
49 32 24 13 26 16 10 16 -11 0 -31 -6 -45 -13z"/>
<path d="M2067 2946 c-68 -28 -97 -51 -97 -78 0 -30 33 -21 63 17 30 38 67 47
67 17 0 -10 11 -29 24 -41 19 -18 33 -22 72 -19 47 3 50 5 71 47 12 24 24 46
27 48 2 3 24 -7 49 -21 48 -28 57 -31 57 -16 0 5 -14 17 -31 26 -97 50 -211
57 -302 20z m106 -11 c1 -5 -6 -11 -15 -13 -11 -2 -18 3 -18 13 0 17 30 18 33
0z m73 4 c3 -6 2 -15 -2 -19 -12 -12 -38 5 -30 19 9 14 23 14 32 0z"/>
<path d="M3367 2938 c18 -18 36 -28 40 -24 8 8 -45 56 -62 56 -5 0 5 -14 22
-32z"/>
<path d="M3078 2945 c-75 -20 -153 -75 -128 -90 5 -3 10 0 10 7 0 7 10 18 23
24 12 6 37 19 54 28 38 20 53 14 53 -19 0 -13 11 -36 24 -51 34 -40 90 -38
128 5 16 17 28 38 28 46 0 24 16 18 65 -25 49 -43 65 -49 65 -25 0 17 -68 69
-125 96 -47 22 -128 23 -197 4z m152 -30 c0 -21 -19 -28 -36 -15 -10 9 -11 16
-3 26 12 15 39 8 39 -11z m-80 0 c0 -8 -9 -15 -20 -15 -20 0 -26 11 -13 23 12
13 33 7 33 -8z"/>
<path d="M1530 2758 c0 -49 5 -47 14 5 4 23 3 37 -4 37 -5 0 -10 -19 -10 -42z"/>
<path d="M2464 2306 c-18 -14 -18 -15 -1 -21 9 -4 31 -2 47 5 16 7 36 10 45 6
8 -3 15 -2 15 3 0 22 -78 27 -106 7z"/>
<path d="M2850 2301 c0 -10 69 -25 77 -17 3 2 2 9 -2 15 -8 13 -75 15 -75 2z"/>
<path d="M3650 2184 c0 -8 5 -12 10 -9 6 3 10 10 10 16 0 5 -4 9 -10 9 -5 0
-10 -7 -10 -16z"/>
<path d="M3627 2143 c-2 -5 -7 -21 -11 -38 l-8 -30 26 24 c14 14 26 30 26 38
0 14 -26 18 -33 6z"/>
<path d="M2248 2049 c-50 -19 -32 -31 41 -27 67 3 91 11 78 24 -11 12 -92 14
-119 3z"/>
<path d="M3026 2002 c-10 -17 17 -30 62 -30 38 -1 54 10 35 21 -19 11 -91 18
-97 9z"/>
<path d="M2623 1843 c-45 -6 -42 -23 3 -23 22 0 41 -6 49 -16 10 -15 13 -15
28 0 9 9 18 15 21 14 2 -2 8 0 12 4 8 9 -40 29 -64 26 -9 0 -32 -3 -49 -5z"/>
<path d="M1843 1758 c-13 -6 -25 -20 -29 -32 -3 -12 -12 -28 -19 -36 -21 -25
-29 -62 -15 -70 9 -6 7 -13 -9 -29 -22 -22 -28 -56 -11 -66 6 -3 10 -15 10
-26 0 -10 -4 -19 -10 -19 -5 0 -10 12 -10 26 0 22 -2 25 -15 14 -16 -13 -21
-60 -6 -60 10 0 25 -48 22 -67 -1 -8 5 -10 15 -6 12 4 15 1 13 -12 -7 -35 -25
-25 -43 24 l-19 48 -39 -17 c-22 -10 -45 -23 -51 -29 -6 -6 -21 -11 -33 -11
-13 0 -26 -4 -29 -10 -3 -5 1 -10 11 -10 13 0 14 -3 4 -15 -7 -8 -19 -15 -26
-15 -8 0 -11 6 -8 15 4 8 2 15 -4 15 -5 0 -15 -7 -22 -15 -7 -8 -21 -15 -32
-15 -24 0 -78 -28 -78 -40 0 -6 -13 -10 -30 -10 -41 0 -81 -20 -78 -39 2 -12
-5 -15 -31 -13 -43 3 -153 -38 -147 -55 7 -17 -15 -28 -24 -13 -7 11 -14 11
-42 0 -18 -8 -37 -19 -43 -26 -5 -6 -25 -14 -44 -18 -42 -8 -210 -82 -235
-104 -10 -10 -19 -15 -20 -13 -3 10 -76 -25 -76 -37 0 -7 -6 -12 -12 -9 -20 7
-88 -31 -88 -49 0 -9 -7 -14 -18 -12 -21 3 -92 -37 -92 -52 0 -6 -4 -9 -10 -5
-11 7 -90 -41 -90 -55 0 -6 -6 -10 -14 -10 -8 0 -34 -15 -58 -33 -24 -18 -60
-43 -81 -56 -28 -17 -37 -29 -34 -42 3 -10 -1 -23 -9 -30 -11 -9 -14 -8 -14 5
0 26 -14 18 -40 -26 -33 -54 -50 -70 -66 -64 -8 3 -14 1 -14 -3 0 -5 12 -13
26 -18 26 -9 26 -10 9 -27 -14 -14 -20 -15 -26 -4 -6 8 -9 2 -9 -19 0 -26 4
-33 20 -33 11 0 20 -5 20 -11 0 -6 -9 -13 -20 -16 -16 -4 -20 -13 -19 -47 1
-22 3 -33 6 -23 6 24 43 22 43 -3 0 -19 -10 -24 -37 -21 -7 1 -13 -7 -13 -19
0 -11 5 -20 10 -20 7 0 7 -6 0 -19 -5 -11 -10 -37 -9 -58 0 -21 3 -32 6 -25 6
15 29 16 38 2 3 -6 3 -19 0 -31 -5 -14 -12 -18 -26 -14 -14 5 -19 2 -19 -13 0
-11 7 -22 15 -26 8 -3 15 -14 15 -25 0 -14 -5 -19 -15 -15 -10 4 -15 0 -15
-15 0 -13 5 -19 14 -15 8 3 17 1 21 -5 3 -6 29 -11 58 -11 37 0 48 3 40 11
-15 15 -4 49 16 49 27 0 42 -20 30 -42 -8 -15 -6 -18 11 -18 11 0 20 7 20 15
0 19 29 20 36 1 4 -10 19 -14 45 -13 34 1 39 4 39 24 0 13 6 23 14 23 16 0 29
-27 20 -41 -3 -5 13 -9 35 -9 33 0 40 3 43 23 4 31 43 31 42 -1 0 -19 4 -22
37 -22 28 0 36 4 35 16 -2 25 29 41 49 24 9 -7 14 -19 11 -27 -4 -9 5 -13 35
-13 26 0 38 4 34 11 -4 5 1 19 11 30 16 18 18 18 36 3 14 -13 15 -20 7 -31 -9
-10 -3 -13 34 -13 35 0 45 3 41 13 -3 8 2 20 11 27 12 10 18 10 30 0 8 -7 15
-19 15 -26 0 -10 13 -14 41 -14 36 0 40 2 29 15 -10 12 -10 18 0 30 26 31 59
11 40 -25 -8 -16 -8 -20 4 -20 8 0 16 6 19 13 4 9 7 9 18 0 21 -21 69 -15 90
10 l19 22 19 -22 c23 -27 29 -28 51 -8 15 14 18 14 30 0 18 -22 63 -19 78 5
16 26 42 26 49 0 4 -16 14 -20 45 -20 35 0 39 2 28 15 -15 18 2 45 27 45 12 0
14 -7 10 -30 -7 -32 8 -41 31 -18 9 9 15 9 24 0 16 -16 48 -15 48 2 0 7 7 19
15 26 12 10 18 10 30 0 9 -7 14 -19 11 -27 -4 -10 7 -13 46 -13 43 0 49 2 38
15 -15 18 -6 45 13 45 8 0 20 -7 27 -15 10 -12 10 -18 0 -30 -11 -13 6 -15
144 -13 117 1 159 5 167 15 15 17 38 17 45 -2 9 -23 31 -18 30 8 -1 30 36 30
49 -1 5 -12 16 -22 23 -22 10 0 10 5 1 21 -13 25 0 43 27 37 13 -2 19 -12 19
-31 -1 -26 1 -27 49 -27 51 0 55 15 6 22 -17 2 -26 10 -28 26 -4 24 7 29 26
10 15 -15 15 -6 1 25 -7 17 -17 23 -29 20 -12 -3 -22 3 -30 17 -16 30 -5 37
21 14 38 -34 -96 206 -160 288 -95 120 -119 165 -125 233 -7 79 -25 215 -31
235 -2 8 -11 75 -20 149 -9 73 -18 138 -22 144 -3 5 -11 127 -19 270 -8 178
-16 262 -24 267 -9 5 -9 9 -1 14 12 8 15 36 4 35 -5 0 -18 -5 -30 -11z m-17
-115 c-12 -12 -29 15 -21 34 7 17 8 16 18 -5 5 -12 7 -25 3 -29z m-3 -67 c4
-9 -2 -17 -14 -21 -27 -9 -35 0 -19 20 16 19 26 19 33 1z m-19 -95 c6 -10 -22
-37 -29 -29 -8 7 5 38 15 38 5 0 11 -4 14 -9z m-114 -91 c0 -22 -7 -25 -29
-11 -16 10 -6 31 15 31 8 0 14 -9 14 -20z m25 -20 c-4 -6 -1 -18 6 -26 17 -20
4 -30 -15 -11 -16 16 -12 47 6 47 5 0 6 -5 3 -10z m-63 -35 c7 -9 19 -22 26
-30 9 -10 10 -20 4 -31 -7 -13 -10 -10 -16 16 -5 26 -9 30 -19 21 -15 -12 -37
3 -37 26 0 18 26 16 42 -2z m152 -10 c-4 -8 -10 -12 -15 -9 -14 8 -10 24 6 24
9 0 12 -6 9 -15z m-314 -23 c0 -20 -26 -41 -39 -33 -12 8 -12 12 -2 25 14 17
41 22 41 8z m50 -12 c-9 -17 -40 -29 -40 -16 0 18 15 36 31 36 17 0 18 -3 9
-20z m211 -27 c-9 -16 -10 -16 -11 -1 0 9 -3 25 -7 35 -7 17 -6 17 11 1 13
-13 15 -22 7 -35z m-141 -4 c0 -21 -8 -23 -29 -10 -18 12 -6 42 14 35 8 -3 15
-15 15 -25z m109 -23 c6 -25 11 -51 10 -58 -1 -18 -38 63 -39 85 0 33 18 16
29 -27z m-339 4 c0 -13 -7 -20 -20 -20 -19 0 -27 20 -13 33 13 14 33 6 33 -13z
m414 -5 c4 -10 -1 -15 -14 -15 -20 0 -26 11 -13 23 10 11 20 8 27 -8z m-338
-22 c-3 -8 -6 -17 -6 -19 0 -2 -6 -4 -14 -4 -21 0 -30 19 -16 35 14 17 43 8
36 -12z m54 12 c0 -8 -2 -15 -4 -15 -2 0 -11 -3 -19 -6 -12 -4 -14 0 -10 15 6
24 33 29 33 6z m116 -23 c-8 -9 -18 -13 -22 -10 -3 4 3 15 13 25 10 10 20 15
22 10 2 -5 -4 -16 -13 -25z m65 -36 c1 -6 3 -24 5 -40 2 -16 -1 -37 -6 -45 -8
-14 -9 -13 -10 4 0 11 -9 40 -21 64 -25 55 -18 85 11 51 11 -13 21 -28 21 -34z
m-491 29 c0 -9 -9 -15 -22 -15 -22 1 -23 1 -4 15 25 19 26 19 26 0z m83 -1
c10 -11 -5 -34 -22 -34 -23 0 -31 9 -24 26 5 14 34 19 46 8z m273 -29 c-5 -14
-9 -15 -21 -5 -12 10 -13 16 -4 27 15 18 34 1 25 -22z m-202 16 c10 -15 -5
-41 -23 -41 -25 0 -32 10 -20 31 10 20 34 25 43 10z m66 -25 c0 -2 -7 -6 -15
-10 -8 -3 -15 -1 -15 4 0 6 7 10 15 10 8 0 15 -2 15 -4z m34 -11 c-6 -16 -24
-21 -24 -7 0 11 11 22 21 22 5 0 6 -7 3 -15z m323 -2 c5 -13 -25 -26 -38 -17
-6 3 -5 11 2 20 13 16 31 14 36 -3z m-607 -8 c0 -16 -27 -32 -37 -22 -3 4 -3
13 0 22 8 20 37 20 37 0z m439 -7 c-9 -16 -14 -19 -17 -9 -2 7 2 17 9 22 20
13 21 11 8 -13z m-503 -23 c-7 -18 -26 -20 -26 -2 0 18 24 41 28 27 2 -6 1
-17 -2 -25z m132 26 c10 -6 9 -10 -7 -14 -14 -3 -21 0 -21 9 0 16 9 18 28 5z
m278 -2 c3 -6 -1 -18 -9 -27 -13 -12 -19 -13 -31 -3 -8 7 -12 19 -9 27 6 17
39 19 49 3z m-466 -13 c0 -8 -4 -17 -9 -20 -15 -10 -40 5 -34 20 7 18 43 18
43 0z m260 4 c0 -5 -4 -10 -10 -10 -5 0 -10 5 -10 10 0 6 5 10 10 10 6 0 10
-4 10 -10z m334 -42 c18 -55 12 -92 -9 -60 -17 23 -29 87 -20 102 9 15 10 13
29 -42z m-669 22 c-3 -5 -11 -10 -16 -10 -6 0 -7 5 -4 10 3 6 11 10 16 10 6 0
7 -4 4 -10z m444 -3 c8 -10 7 -17 -1 -25 -26 -26 -60 -4 -38 23 15 18 24 19
39 2z m-122 -13 c3 -8 1 -20 -6 -27 -14 -14 -47 15 -37 32 10 16 36 13 43 -5z
m263 -9 c0 -15 -18 -30 -27 -22 -2 3 -2 15 2 26 7 23 25 19 25 -4z m-383 1
c-2 -6 -21 -12 -42 -14 -32 -3 -37 -1 -27 11 14 16 74 19 69 3z m278 -5 c6
-10 -21 -41 -36 -41 -12 0 -11 7 1 31 11 20 25 25 35 10z m355 -6 c0 -8 -4
-15 -10 -15 -5 0 -10 7 -10 15 0 8 5 15 10 15 6 0 10 -7 10 -15z m-866 -10
c-4 -8 -15 -15 -26 -15 -17 0 -18 3 -8 15 7 8 19 15 26 15 8 0 11 -6 8 -15z
m81 -5 c0 -9 -11 -16 -27 -18 -30 -4 -31 -2 -22 23 8 20 49 16 49 -5z m715 5
c0 -16 -27 -32 -37 -22 -3 4 -3 13 0 22 8 20 37 20 37 0z m-865 -16 c-4 -5
-16 -9 -28 -9 -21 1 -21 1 -3 15 20 15 41 11 31 -6z m215 12 c0 -11 -29 -35
-35 -29 -10 9 7 38 21 38 8 0 14 -4 14 -9z m139 -15 c8 -10 8 -16 -3 -25 -10
-9 -16 -8 -26 3 -12 15 -6 36 9 36 5 0 14 -6 20 -14z m361 -34 c0 -13 4 -20
10 -17 6 3 10 0 10 -9 0 -8 5 -16 12 -18 8 -3 8 -9 0 -24 -10 -17 -11 -17 -12
-1 0 9 -4 17 -10 17 -11 0 -26 47 -21 69 1 7 -2 10 -8 6 -12 -7 -15 8 -4 18 9
10 23 -14 23 -41z m-790 28 c-20 -13 -33 -13 -25 0 3 6 14 10 23 10 15 0 15
-2 2 -10z m556 -1 c10 -17 -23 -46 -37 -32 -7 7 -9 19 -6 27 7 18 33 21 43 5z
m160 -10 c10 -17 -23 -46 -37 -32 -7 7 -9 19 -6 27 7 18 33 21 43 5z m-361
-24 c25 0 32 -30 9 -39 -23 -9 -58 29 -49 52 6 15 8 15 14 2 3 -8 15 -15 26
-15z m-235 -5 c0 -15 -7 -20 -25 -20 -27 0 -32 9 -13 28 18 18 38 14 38 -8z
m-144 -1 c3 -6 1 -16 -4 -21 -13 -13 -45 8 -36 23 7 12 31 11 40 -2z m74 2 c0
-14 -28 -33 -39 -27 -16 10 -1 36 20 36 10 0 19 -4 19 -9z m146 -7 c-5 -13 -2
-15 14 -11 11 3 17 1 14 -5 -5 -8 -62 -2 -73 8 -8 7 12 24 31 24 14 0 18 -5
14 -16z m404 7 c0 -13 -26 -32 -33 -24 -8 7 11 33 24 33 5 0 9 -4 9 -9z m280
0 c0 -5 -7 -14 -15 -21 -12 -10 -15 -10 -15 2 0 8 3 18 7 21 9 10 23 9 23 -2z
m100 -23 c0 -19 -16 -5 -17 14 -2 18 0 20 7 8 5 -8 10 -18 10 -22z m-1080 12
c0 -5 -8 -10 -17 -10 -15 0 -16 2 -3 10 19 12 20 12 20 0z m590 -6 c11 -12 10
-18 -3 -32 -16 -15 -18 -15 -34 0 -13 14 -14 20 -3 32 7 9 16 16 20 16 4 0 13
-7 20 -16z m542 -6 c-7 -7 -12 -8 -12 -2 0 14 12 26 19 19 2 -3 -1 -11 -7 -17z
m-372 -13 c0 -2 -7 -10 -15 -19 -17 -16 -45 -11 -45 8 0 23 22 36 42 25 10 -5
18 -11 18 -14z m249 -11 c-14 -18 -39 -18 -39 -1 0 23 22 38 37 25 10 -8 10
-14 2 -24z m-611 1 c5 -22 -18 -37 -35 -23 -17 13 -17 35 0 41 19 8 32 2 35
-18z m468 -21 c3 -13 10 -21 15 -18 5 3 9 0 9 -6 0 -6 7 -18 15 -26 8 -9 15
-24 15 -35 0 -18 -2 -19 -15 -5 -8 8 -15 18 -15 22 0 3 -8 14 -18 23 -10 9
-24 30 -30 48 -9 27 -8 31 4 26 8 -3 17 -16 20 -29z m-906 17 c0 -5 -7 -12
-16 -15 -24 -9 -28 -7 -14 9 14 17 30 20 30 6z m88 -13 c-5 -15 -48 -24 -48
-10 0 14 12 22 33 22 10 0 17 -5 15 -12z m76 3 c9 -14 -22 -34 -40 -27 -13 5
-14 9 -4 21 14 17 36 20 44 6z m61 -1 c-28 -12 -37 -12 -30 0 3 6 16 10 28 9
21 0 21 -1 2 -9z m83 -6 c-10 -10 -23 -14 -34 -10 -16 6 -16 8 -4 16 8 6 24
10 35 10 18 0 18 -1 3 -16z m262 -20 c0 -16 -26 -19 -35 -4 -4 6 -4 18 -1 27
5 12 9 13 21 3 8 -7 15 -19 15 -26z m116 21 c9 -23 -15 -48 -32 -34 -10 8 -11
16 -3 30 12 23 28 25 35 4z m-746 1 c0 -2 -7 -6 -15 -10 -8 -3 -15 -1 -15 4 0
6 7 10 15 10 8 0 15 -2 15 -4z m80 -6 c0 -13 -28 -25 -38 -16 -3 4 0 11 8 16
20 13 30 12 30 0z m969 -32 c1 -5 -3 -8 -9 -8 -5 0 -10 12 -9 28 0 24 1 25 9
7 5 -11 9 -23 9 -27z m-126 -1 c7 -21 6 -32 -3 -40 -10 -9 -12 -7 -8 9 4 17 2
20 -12 17 -21 -6 -34 12 -26 33 9 24 38 12 49 -19z m-485 0 c4 -20 -25 -34
-40 -19 -15 15 -1 44 19 40 10 -2 19 -11 21 -21z m722 4 c13 -26 13 -31 -5
-31 -8 0 -15 4 -15 10 0 5 -7 7 -15 4 -9 -4 -15 0 -15 8 0 33 34 38 50 9z m44
3 c8 -21 8 -24 -3 -24 -5 0 -11 9 -14 20 -6 24 8 27 17 4z m57 -27 c-8 -8 -11
-5 -11 9 0 27 14 41 18 19 2 -9 -1 -22 -7 -28z m-1011 23 c0 -12 -28 -25 -36
-17 -9 9 6 27 22 27 8 0 14 -5 14 -10z m540 -4 c0 -7 -6 -19 -14 -25 -19 -16
-32 5 -16 24 16 19 30 19 30 1z m-840 -6 c0 -5 -7 -10 -16 -10 -8 0 -12 5 -9
10 3 6 10 10 16 10 5 0 9 -4 9 -10z m364 1 c9 -14 -19 -32 -38 -25 -13 5 -14
9 -5 20 13 16 35 18 43 5z m253 -7 c8 -20 -8 -36 -26 -25 -15 10 -8 41 9 41 6
0 13 -7 17 -16z m-677 -9 c-7 -8 -17 -15 -22 -15 -6 0 -5 7 2 15 7 8 17 15 22
15 6 0 5 -7 -2 -15z m158 -2 c-2 -10 -13 -19 -26 -21 -24 -4 -29 7 -10 26 18
18 40 15 36 -5z m76 1 c8 -22 6 -23 -26 -17 -17 3 -25 10 -21 19 7 19 39 18
47 -2z m566 0 c11 -12 10 -18 -3 -32 -16 -15 -18 -15 -34 0 -13 14 -14 20 -3
32 7 9 16 16 20 16 4 0 13 -7 20 -16z m384 -25 c-15 -17 -39 -17 -31 -1 2 4 7
15 11 26 5 15 9 16 21 6 14 -11 14 -15 -1 -31z m-1094 21 c0 -13 -28 -25 -38
-16 -3 4 0 11 8 16 20 13 30 12 30 0z m211 -15 c0 -5 -9 -11 -21 -13 -20 -3
-27 8 -13 22 10 9 34 3 34 -9z m187 -9 c2 -10 -1 -23 -7 -29 -15 -15 -46 16
-37 38 8 21 40 15 44 -9z m478 13 c9 -16 -20 -41 -39 -33 -17 6 -22 25 -10 37
10 11 41 8 49 -4z m-950 -14 c-21 -16 -32 -13 -21 4 3 6 14 11 23 11 15 -1 15
-2 -2 -15z m594 6 c0 -20 -13 -41 -25 -41 -18 0 -26 15 -19 34 6 17 44 23 44
7z m441 -24 c-8 -8 -11 -7 -11 4 0 20 13 34 18 19 3 -7 -1 -17 -7 -23z m-1096
3 c-3 -5 -11 -10 -16 -10 -6 0 -7 5 -4 10 3 6 11 10 16 10 6 0 7 -4 4 -10z
m235 -10 c0 -11 -30 -21 -42 -14 -7 5 -4 12 7 20 18 13 35 10 35 -6z m180 10
c0 -15 -38 -32 -45 -20 -3 5 -3 15 0 20 8 13 45 13 45 0z m480 2 c0 -5 -6 -16
-13 -27 -16 -20 -31 -7 -21 19 6 16 34 23 34 8z m240 -27 c11 7 33 -71 26 -88
-2 -7 -5 -4 -5 6 -1 9 -5 17 -10 17 -5 0 -12 12 -16 27 -3 15 -11 30 -16 34
-5 3 -6 14 -2 25 7 18 8 17 11 -4 2 -12 7 -20 12 -17z m248 7 c4 -25 -13 -30
-22 -6 -9 25 -7 36 7 32 6 -3 13 -14 15 -26z m-1443 -1 c-3 -6 -11 -11 -17
-11 -6 0 -6 6 2 15 14 17 26 13 15 -4z m738 -6 c-8 -22 -22 -18 -16 5 3 11 9
17 14 15 4 -3 6 -12 2 -20z m105 1 c3 -13 -1 -17 -14 -14 -11 2 -20 11 -22 22
-3 13 1 17 14 14 11 -2 20 -11 22 -22z m556 8 c7 -17 0 -34 -14 -34 -11 0 -21
30 -14 41 8 14 21 11 28 -7z m86 1 c0 -8 -4 -15 -10 -15 -5 0 -10 7 -10 15 0
8 5 15 10 15 6 0 10 -7 10 -15z m-1316 -12 c7 -18 -9 -41 -21 -29 -4 4 -1 11
7 17 11 7 7 8 -13 3 -22 -5 -26 -3 -21 10 8 21 40 21 48 -1z m361 1 c12 -12
13 -19 4 -30 -14 -17 -31 -18 -47 -2 -9 9 -8 16 5 30 20 22 18 22 38 2z m581
0 c-3 -9 -6 -21 -6 -27 0 -8 -3 -8 -11 0 -13 13 -5 43 12 43 6 0 8 -7 5 -16z
m236 6 c4 -28 1 -33 -17 -36 -20 -3 -35 11 -35 34 0 14 49 17 52 2z m-1252
-15 c-13 -16 -50 -21 -50 -7 0 15 13 22 38 22 21 0 22 -2 12 -15z m250 5 c0
-12 -28 -25 -36 -17 -9 9 6 27 22 27 8 0 14 -5 14 -10z m310 -6 c11 -12 10
-18 -3 -32 -16 -15 -18 -15 -34 0 -13 14 -14 20 -3 32 7 9 16 16 20 16 4 0 13
-7 20 -16z m349 3 c8 -11 6 -18 -8 -31 -16 -15 -19 -15 -31 -1 -10 12 -10 18
0 30 15 19 24 19 39 2z m-984 -7 c-3 -5 -13 -10 -21 -10 -8 0 -12 5 -9 10 3 6
13 10 21 10 8 0 12 -4 9 -10z m380 0 c9 -15 -14 -40 -31 -33 -17 6 -18 30 -1
36 19 8 25 8 32 -3z m-166 -36 c-14 -17 -35 -18 -45 -2 -11 17 26 40 43 27 10
-9 10 -15 2 -25z m551 21 c16 -20 1 -38 -23 -29 -17 6 -22 25 -10 37 10 11 19
8 33 -8z m341 -28 c-8 -8 -11 -5 -11 9 0 27 14 41 18 19 2 -9 -1 -22 -7 -28z
m-1166 23 c-3 -5 -11 -10 -16 -10 -6 0 -7 5 -4 10 3 6 11 10 16 10 6 0 7 -4 4
-10z m945 -9 c0 -4 -6 -15 -13 -25 -12 -16 -14 -16 -26 -2 -11 13 -11 19 -1
30 11 14 40 12 40 -3z m370 6 c0 -14 -19 -37 -31 -37 -3 0 -4 11 -1 25 4 25
32 36 32 12z m-1375 -17 c-3 -5 1 -10 11 -10 13 0 14 -3 4 -15 -18 -22 -27
-18 -27 10 0 14 4 25 9 25 5 0 6 -4 3 -10z m93 -2 c-6 -16 -36 -34 -44 -25 -9
9 15 37 33 37 8 0 13 -5 11 -12z m62 3 c0 -5 -9 -11 -20 -14 -20 -5 -26 3 -13
16 9 10 33 8 33 -2z m235 0 c3 -5 -2 -17 -11 -26 -22 -21 -44 -4 -24 20 14 17
26 19 35 6z m182 -7 c3 -8 -2 -23 -11 -32 -15 -15 -17 -15 -33 0 -13 14 -14
20 -3 32 16 20 39 20 47 0z m118 0 c12 -12 13 -19 4 -30 -6 -8 -17 -14 -24
-14 -18 0 -27 30 -14 46 14 17 14 17 34 -2z m469 10 c20 -8 21 -28 2 -43 -17
-14 -41 11 -32 34 6 17 8 17 30 9z m100 -16 c-8 -27 -12 -33 -19 -27 -7 8 7
49 17 49 5 0 6 -10 2 -22z m-1044 3 c0 -12 -29 -23 -42 -15 -6 4 -5 10 3 15
18 11 39 11 39 0z m600 -10 c0 -11 -5 -23 -11 -27 -15 -9 -33 12 -26 30 9 23
37 20 37 -3z m750 -7 c0 -31 -23 -28 -28 4 -2 15 2 22 12 22 11 0 16 -9 16
-26z m40 0 c0 -8 -4 -14 -10 -14 -5 0 -10 9 -10 21 0 11 5 17 10 14 6 -3 10
-13 10 -21z m-1160 12 c0 -18 -15 -36 -31 -36 -22 0 -24 11 -7 28 11 11 38 17
38 8z m598 -18 c-4 -29 -38 -38 -38 -10 0 22 8 32 27 32 9 0 13 -8 11 -22z
m472 -3 c0 -16 -6 -25 -15 -25 -9 0 -15 9 -15 25 0 16 6 25 15 25 9 0 15 -9
15 -25z m-1233 -2 c6 -16 -30 -34 -47 -23 -11 7 -12 11 0 25 15 18 41 17 47
-2z m990 -15 c-3 -7 -5 -2 -5 12 0 14 2 19 5 13 2 -7 2 -19 0 -25z m153 7 c0
-33 -28 -45 -46 -20 -20 27 -18 33 14 38 15 2 28 5 30 6 1 0 2 -10 2 -24z m40
0 c0 -14 -4 -25 -10 -25 -5 0 -10 11 -10 25 0 14 5 25 10 25 6 0 10 -11 10
-25z m-1380 -5 c-24 -15 -37 -11 -16 5 11 8 22 12 25 9 3 -3 -1 -9 -9 -14z
m760 13 c0 -14 -19 -38 -25 -32 -8 8 5 39 16 39 5 0 9 -3 9 -7z m90 -8 c9 -11
10 -19 2 -27 -14 -14 -32 -1 -32 23 0 23 13 25 30 4z m-782 -12 c-4 -23 -48
-31 -48 -10 0 9 6 18 13 20 25 11 38 7 35 -10z m352 2 c24 -29 -21 -60 -48
-33 -9 9 -8 16 5 30 20 22 27 22 43 3z m-183 -32 c-14 -14 -19 -15 -29 -4 -11
10 -9 15 6 27 27 20 47 0 23 -23z m313 21 c11 -12 10 -18 -3 -31 -15 -15 -18
-15 -37 2 -15 14 -17 21 -9 32 15 17 34 17 49 -3z m129 -31 c-15 -18 -34 -17
-50 3 -11 14 -10 18 6 30 16 12 21 12 37 -3 14 -12 15 -19 7 -30z m341 31 c11
-12 10 -18 -3 -32 -16 -15 -18 -15 -34 0 -13 14 -14 20 -3 32 7 9 16 16 20 16
4 0 13 -7 20 -16z m104 1 c-6 -16 -24 -21 -24 -7 0 11 11 22 21 22 5 0 6 -7 3
-15z m90 -24 c-8 -9 -22 12 -17 26 6 15 7 14 13 -3 4 -10 6 -21 4 -23z m-1314
14 c-13 -16 -40 -20 -40 -7 0 14 12 22 33 22 16 0 17 -3 7 -15z m-73 -22 c-9
-9 -20 -13 -24 -9 -4 4 1 14 11 22 25 18 35 8 13 -13z m109 -1 c-8 -9 -19 -13
-22 -9 -10 9 16 38 28 31 6 -4 4 -13 -6 -22z m190 17 c10 -17 -23 -46 -38 -31
-8 8 -8 15 2 27 15 18 26 19 36 4z m174 3 c0 -12 -23 -32 -37 -32 -11 0 -11 4
-1 20 13 20 38 28 38 12z m495 -33 c-5 -7 -11 -6 -21 2 -11 9 -12 15 -2 26 10
12 13 12 20 -1 5 -9 6 -21 3 -27z m346 -2 c-8 -8 -11 -5 -11 9 0 27 14 41 18
19 2 -9 -1 -22 -7 -28z m-232 19 c17 -20 -15 -52 -35 -35 -12 10 -12 15 2 30
20 23 19 22 33 5z m361 -1 c0 -8 -4 -15 -9 -15 -13 0 -22 16 -14 24 11 11 23
6 23 -9z m270 -10 c0 -28 -15 -34 -24 -9 -10 25 -7 34 9 34 9 0 15 -9 15 -25z
m-1532 -7 c4 -21 -27 -32 -45 -16 -13 10 -12 14 3 25 22 16 38 12 42 -9z
m1442 -20 c0 -24 -26 -23 -33 1 -6 24 13 47 25 28 4 -6 8 -20 8 -29z m44 26
c7 -18 0 -34 -15 -34 -5 0 -9 11 -9 25 0 28 15 34 24 9z m-1136 -6 c17 -17 15
-26 -7 -38 -26 -14 -58 15 -40 36 14 17 31 18 47 2z m126 -10 c15 -24 -10 -51
-35 -37 -22 11 -24 30 -7 47 15 15 28 11 42 -10z m601 6 c12 -12 13 -19 4 -30
-6 -8 -18 -14 -26 -14 -19 0 -28 27 -13 45 15 19 15 19 35 -1z m95 4 c0 -7 -5
-20 -10 -28 -8 -12 -10 -9 -10 13 0 15 5 27 10 27 6 0 10 -6 10 -12z m-992
-19 c4 -21 -26 -33 -44 -18 -11 9 -12 15 -3 26 15 18 43 13 47 -8z m422 5 c11
-12 10 -18 -3 -32 -16 -15 -18 -15 -34 0 -13 14 -14 20 -3 32 7 9 16 16 20 16
4 0 13 -7 20 -16z m120 2 c0 -20 -26 -40 -35 -26 -10 16 2 40 20 40 8 0 15 -6
15 -14z m633 -6 c3 -11 1 -20 -4 -20 -5 0 -9 2 -9 4 0 2 -3 11 -6 20 -3 9 -2
16 4 16 5 0 12 -9 15 -20z m37 -5 c0 -28 -15 -34 -24 -9 -10 25 -7 34 9 34 9
0 15 -9 15 -25z m-1560 5 c0 -5 -3 -11 -7 -11 -5 -1 -21 -3 -37 -5 -45 -5 -12
17 37 25 4 0 7 -3 7 -9z m1125 -9 c0 -16 -31 -38 -40 -29 -4 4 -4 16 0 28 7
23 40 24 40 1z m367 -5 c13 -20 -10 -29 -41 -16 -17 7 -31 16 -31 20 0 22 58
18 72 -4z m-1442 -1 c0 -19 -24 -30 -41 -19 -9 5 -7 11 6 21 24 17 35 17 35
-2z m178 3 c13 -13 -2 -38 -23 -38 -21 0 -36 25 -23 38 7 7 17 12 23 12 6 0
16 -5 23 -12z m1137 -19 c4 -17 4 -33 1 -36 -3 -4 -6 1 -6 10 0 10 -4 17 -10
17 -5 0 -10 9 -10 20 0 31 18 24 25 -11z m-1466 -5 c-16 -19 -3 -30 16 -14 20
17 33 4 14 -15 -16 -15 -69 -9 -69 8 0 6 7 19 16 28 19 22 41 14 23 -7z m204
19 c8 -7 -21 -43 -35 -43 -12 0 -10 24 4 38 14 14 22 15 31 5z m297 -2 c0 -11
-29 -35 -35 -29 -10 9 7 38 21 38 8 0 14 -4 14 -9z m520 -5 c0 -16 -18 -31
-27 -22 -8 8 5 36 17 36 5 0 10 -6 10 -14z m100 -18 c0 -15 -32 -21 -40 -7
-13 20 9 43 26 28 8 -6 14 -16 14 -21z m263 -8 c-3 -11 -9 -20 -14 -20 -10 0
-12 33 -3 43 12 12 22 -3 17 -23z m-825 8 c15 -15 -3 -38 -29 -38 -24 0 -33
18 -19 35 15 18 32 19 48 3z m122 -4 c11 -12 10 -18 -3 -32 -16 -15 -18 -15
-33 0 -19 18 -12 48 9 48 8 0 20 -7 27 -16z m123 -36 c-15 -17 -17 -17 -35 -1
-17 15 -17 17 -1 35 15 17 17 17 35 1 17 -15 17 -17 1 -35z m987 16 c0 -13 -4
-24 -9 -24 -13 0 -24 37 -16 50 10 16 25 1 25 -26z m30 5 c0 -11 -4 -17 -10
-14 -5 3 -10 15 -10 26 0 11 5 17 10 14 6 -3 10 -15 10 -26z m-1425 2 c0 -8
-8 -19 -17 -25 -22 -13 -44 5 -34 29 7 20 51 16 51 -4z m544 6 c8 -11 6 -18
-9 -32 -19 -17 -22 -17 -37 -2 -13 13 -14 19 -3 31 15 20 34 20 49 3z m349
-10 c4 -22 -24 -33 -43 -17 -12 10 -13 16 -4 27 16 18 43 13 47 -10z m-1200 1
c-6 -16 -36 -34 -44 -25 -9 9 15 37 33 37 8 0 13 -5 11 -12z m177 -8 c0 -18
-33 -26 -47 -12 -6 6 -7 15 -3 22 10 16 50 8 50 -10z m1155 8 c0 -19 -18 -43
-25 -36 -9 9 4 48 16 48 5 0 9 -6 9 -12z m77 -10 c-3 -8 -6 -5 -6 6 -1 11 2
17 5 13 3 -3 4 -12 1 -19z m247 6 c9 -25 7 -34 -9 -34 -16 0 -38 34 -28 44 12
11 31 6 37 -10z m-577 -10 c3 -8 -1 -22 -9 -30 -13 -13 -16 -13 -28 0 -10 13
-10 19 0 31 16 19 29 19 37 -1z m523 -5 c13 -24 8 -34 -15 -26 -16 7 -21 47
-5 47 5 0 14 -9 20 -21z m-1250 -3 c0 -19 -27 -39 -40 -31 -8 5 -6 13 6 26 20
22 34 25 34 5z m610 4 c0 -5 -4 -10 -10 -10 -5 0 -10 5 -10 10 0 6 5 10 10 10
6 0 10 -4 10 -10z m573 -20 c3 -11 2 -20 -3 -20 -8 0 -20 24 -20 41 0 17 17 1
23 -21z m27 -8 c0 -7 -4 -10 -10 -7 -5 3 -10 16 -10 28 0 18 2 19 10 7 5 -8
10 -21 10 -28z m-1500 18 c0 -13 -32 -28 -48 -23 -10 4 -10 8 -1 19 13 16 49
19 49 4z m464 -38 c-13 -20 -25 -20 -38 1 -7 10 -5 21 4 32 12 15 15 15 29 0
12 -12 13 -19 5 -33z m366 29 c0 -22 -15 -35 -30 -26 -6 4 -5 13 3 25 15 25
27 25 27 1z m451 -24 c-8 -8 -11 -5 -11 9 0 27 14 41 18 19 2 -9 -1 -22 -7
-28z m-933 10 c4 -19 -20 -32 -43 -23 -13 5 -14 10 -5 26 13 25 43 23 48 -3z
m242 8 c15 -18 6 -45 -13 -45 -8 0 -20 7 -27 15 -10 12 -10 18 0 30 16 19 24
19 40 0z m614 -1 c8 -21 -1 -34 -24 -34 -25 0 -35 17 -20 35 16 20 36 19 44
-1z m-1384 -29 c-7 -8 -16 -15 -21 -15 -14 0 -10 17 8 36 20 20 32 1 13 -21z
m228 18 c-2 -10 -13 -19 -26 -21 -24 -4 -29 7 -10 26 18 18 40 15 36 -5z m128
6 c3 -6 -1 -18 -10 -27 -15 -15 -17 -15 -32 0 -19 19 -11 38 16 38 10 0 22 -5
26 -11z m551 -5 c3 -8 -1 -22 -9 -30 -12 -12 -17 -12 -33 -1 -23 17 -14 47 15
47 11 0 23 -7 27 -16z m347 -1 c4 -9 0 -23 -8 -31 -22 -22 -50 2 -35 29 12 24
35 25 43 2z m263 -3 c1 -11 -2 -20 -8 -20 -10 0 -12 23 -2 33 9 9 9 10 10 -13z
m103 -2 c0 -19 -2 -20 -10 -8 -13 19 -13 30 0 30 6 0 10 -10 10 -22z m-1570
-8 c-6 -11 -17 -20 -26 -20 -12 0 -12 4 -4 20 6 11 17 20 26 20 12 0 12 -4 4
-20z m993 -22 c-22 -24 -39 -8 -23 22 9 17 14 19 26 9 13 -10 12 -14 -3 -31z
m443 5 c-11 -11 -19 6 -11 24 8 17 8 17 12 0 3 -10 2 -21 -1 -24z m-1378 15
c-6 -16 -36 -34 -44 -25 -9 9 15 37 33 37 8 0 13 -5 11 -12z m1031 -2 c9 -11
8 -18 -4 -30 -19 -19 -35 -13 -35 13 0 32 20 40 39 17z m701 5 c0 -5 3 -16 6
-25 4 -11 1 -16 -10 -16 -10 0 -16 9 -16 25 0 14 5 25 10 25 6 0 10 -4 10 -9z
m-1552 -13 c7 -7 12 -15 12 -19 0 -14 -32 -19 -51 -8 -16 8 -18 13 -8 25 14
17 31 18 47 2z m132 -8 c0 -15 -30 -32 -46 -26 -15 6 -15 8 1 26 16 17 45 18
45 0z m1000 12 c0 -5 -7 -17 -15 -28 -15 -19 -20 -8 -9 20 6 17 24 22 24 8z
m380 -1 c0 -5 3 -16 6 -25 4 -10 1 -16 -9 -16 -20 0 -30 17 -23 35 6 16 26 21
26 6z m-1211 -19 c11 -20 -3 -42 -25 -42 -15 0 -28 35 -19 50 10 16 33 12 44
-8z m1171 -22 c0 -8 -12 -20 -26 -27 -23 -10 -26 -9 -34 13 -5 13 -12 24 -14
24 -3 0 -3 -6 0 -14 3 -8 1 -17 -5 -21 -6 -3 -11 -2 -11 4 0 5 -3 16 -6 25 -5
12 0 16 20 16 14 0 26 -4 26 -10 0 -19 18 -10 24 13 5 18 8 20 16 7 5 -8 10
-22 10 -30z m-1590 20 c0 -11 -48 -25 -56 -17 -4 3 -3 10 1 16 8 14 55 14 55
1z m544 -6 c7 -19 -10 -44 -30 -44 -20 0 -36 34 -22 48 17 17 45 15 52 -4z
m134 -16 c-9 -25 -37 -33 -54 -17 -14 15 -14 18 1 33 13 12 21 14 36 5 11 -6
19 -15 17 -21z m119 17 c2 -6 -3 -19 -11 -30 -12 -16 -16 -17 -30 -6 -12 10
-13 18 -5 33 11 20 40 21 46 3z m-502 -14 c0 -16 -31 -38 -40 -29 -4 4 -4 16
0 28 7 23 40 24 40 1z m860 0 c0 -8 -8 -19 -17 -25 -22 -13 -44 5 -34 29 7 20
51 16 51 -4z m125 11 c0 -5 -7 -17 -15 -28 -14 -19 -14 -19 -15 2 0 11 3 24 7
27 9 10 23 9 23 -1z m200 -13 c7 -11 9 -23 6 -26 -8 -9 -36 17 -36 33 0 21 18
17 30 -7z m-455 1 c8 -13 -13 -40 -31 -40 -14 0 -19 31 -7 43 10 10 31 8 38
-3z m-1182 -6 c10 -10 -12 -44 -28 -44 -18 0 -20 21 -3 38 13 13 22 15 31 6z
m214 -11 c6 -16 -36 -28 -50 -14 -9 9 -8 14 3 21 19 12 42 9 47 -7z m122 -7
c9 -10 8 -16 -4 -26 -13 -11 -19 -11 -32 2 -16 17 -10 38 11 38 8 0 19 -6 25
-14z m180 -37 c-12 -23 -17 -24 -41 -2 -17 15 -17 17 -1 35 15 17 18 17 34 2
14 -13 16 -21 8 -35z m471 39 c0 -19 -18 -43 -25 -36 -9 9 4 48 16 48 5 0 9
-6 9 -12z m470 0 c0 -7 -4 -19 -9 -27 -11 -17 -23 1 -15 23 7 19 24 21 24 4z
m-1402 -20 c-4 -29 -38 -38 -38 -10 0 22 8 32 27 32 9 0 13 -8 11 -22z m576
-26 c-13 -20 -25 -20 -38 1 -7 10 -5 21 4 32 12 15 15 15 29 0 12 -12 13 -19
5 -33z m730 39 c3 -4 -1 -17 -9 -27 -11 -15 -16 -16 -26 -7 -10 10 -9 15 1 28
14 17 26 19 34 6z m-1266 -23 c-5 -32 -28 -35 -28 -4 0 17 5 26 16 26 10 0 14
-7 12 -22z m670 -4 c4 -27 -26 -40 -46 -20 -13 13 -13 18 -2 31 18 21 44 15
48 -11z m127 16 c9 -15 -4 -50 -19 -50 -8 0 -19 7 -26 15 -10 12 -10 18 0 30
14 17 36 20 45 5z m938 -34 c-4 -5 -12 -1 -19 9 -7 10 -11 22 -8 27 3 5 12 1
19 -9 7 -10 11 -22 8 -27z m-1565 22 c7 -7 12 -17 12 -24 0 -19 -32 -26 -48
-10 -13 12 -13 18 -2 30 15 19 22 20 38 4z m772 -3 c10 -12 10 -18 0 -30 -14
-17 -20 -18 -39 -6 -10 7 -11 13 -2 30 14 25 24 26 41 6z m208 3 c13 -13 -2
-38 -23 -38 -21 0 -36 25 -23 38 7 7 17 12 23 12 6 0 16 -5 23 -12z m-848 -6
c0 -5 -6 -17 -14 -28 -12 -15 -17 -16 -27 -7 -10 10 -9 15 1 28 13 16 40 21
40 7z m987 -22 c-6 -11 -15 -20 -19 -20 -12 0 -9 25 4 38 17 17 29 4 15 -18z
m407 14 c10 -26 -4 -37 -25 -18 -18 16 -19 16 -13 1 3 -9 2 -17 -4 -17 -9 0
-22 22 -22 39 0 15 58 11 64 -5z m-1641 -8 c6 -16 -2 -28 -14 -20 -12 7 -11
34 0 34 5 0 11 -6 14 -14z m972 4 c7 -12 -12 -40 -26 -40 -5 0 -9 11 -9 25 0
25 23 35 35 15z m595 -9 c13 -26 13 -31 -4 -31 -13 0 -26 20 -26 41 0 16 19
10 30 -10z m-1250 -32 c0 -19 -37 -28 -56 -15 -18 14 -18 15 0 35 18 20 20 20
38 5 10 -10 18 -21 18 -25z m1170 20 c0 -6 -4 -7 -10 -4 -5 3 -10 11 -10 16 0
6 5 7 10 4 6 -3 10 -11 10 -16z m43 -1 c8 -30 -2 -37 -19 -14 -18 25 -18 36 0
36 7 0 16 -10 19 -22z m-1108 -18 c0 -29 -32 -41 -41 -16 -9 24 4 48 23 44 12
-2 18 -12 18 -28z m370 20 c3 -5 1 -19 -5 -30 -9 -17 -14 -19 -25 -10 -11 9
-12 17 -4 31 11 21 24 24 34 9z m470 -19 c-7 -23 -25 -29 -25 -8 0 14 21 39
28 33 2 -3 1 -14 -3 -25z m-1388 3 c5 -16 -23 -48 -35 -40 -16 10 -15 43 1 49
16 7 30 3 34 -9z m182 3 c8 -11 7 -18 -7 -31 -22 -19 -32 -12 -32 21 0 25 21
31 39 10z m498 -3 c3 -8 -2 -23 -11 -32 -15 -15 -17 -15 -32 0 -21 21 -11 48
16 48 11 0 23 -7 27 -16z m123 0 c11 -12 10 -18 -3 -32 -16 -15 -18 -15 -33 0
-19 18 -12 48 9 48 8 0 20 -7 27 -16z m1060 1 c7 -9 10 -18 7 -22 -8 -7 -37
15 -37 28 0 14 16 11 30 -6z m-1550 -20 c0 -7 -7 -18 -16 -25 -12 -11 -18 -10
-32 4 -16 16 -16 18 1 31 21 15 47 10 47 -10z m840 9 c11 -12 10 -18 -3 -32
-16 -15 -18 -15 -34 0 -13 14 -14 20 -3 32 7 9 16 16 20 16 4 0 13 -7 20 -16z
m145 -13 c-3 -6 -14 -11 -23 -11 -15 1 -15 2 2 15 21 16 32 13 21 -4z m-1245
-16 c0 -14 -6 -25 -13 -25 -21 0 -27 11 -16 31 14 27 29 23 29 -6z m910 11 c0
-18 -27 -39 -40 -31 -7 4 -7 12 0 26 12 22 40 26 40 5z m866 3 c7 -12 -12 -29
-33 -29 -7 0 -13 9 -13 20 0 22 34 28 46 9z m-1702 -8 c10 -16 -5 -41 -24 -41
-23 0 -32 13 -24 34 7 17 39 22 48 7z m1096 -1 c0 -5 -4 -10 -10 -10 -5 0 -10
5 -10 10 0 6 5 10 10 10 6 0 10 -4 10 -10z m553 -33 c-3 -6 -11 -3 -19 8 -7
10 -11 22 -7 28 3 6 11 3 19 -8 7 -10 11 -22 7 -28z m-1538 17 c12 -12 13 -19
4 -30 -15 -18 -33 -18 -50 2 -11 14 -10 18 6 30 23 17 20 17 40 -2z m134 2 c9
-11 8 -18 -4 -30 -20 -19 -27 -20 -43 -4 -9 9 -8 16 5 30 19 22 27 22 42 4z
m117 -1 c4 -8 0 -22 -7 -31 -11 -13 -14 -13 -27 0 -17 17 -9 46 13 46 9 0 18
-7 21 -15z m123 1 c26 -31 -16 -67 -44 -37 -15 17 -15 20 0 35 20 20 29 20 44
2z m1006 4 c4 -6 1 -18 -6 -26 -11 -13 -14 -13 -27 0 -8 8 -11 19 -8 25 9 14
33 14 41 1z m119 -13 c8 -12 7 -20 -2 -29 -10 -10 -15 -10 -22 2 -14 21 -12
52 2 48 6 -2 16 -12 22 -21z m-994 -2 c10 -12 10 -18 0 -30 -7 -8 -18 -15 -25
-15 -7 0 -18 7 -25 15 -10 12 -10 18 0 30 7 8 18 15 25 15 7 0 18 -7 25 -15z
m124 6 c10 -16 -5 -41 -24 -41 -25 0 -35 18 -20 35 14 17 36 20 44 6z m150
-39 c-13 -20 -25 -20 -38 1 -7 10 -5 21 4 32 12 15 15 15 29 0 12 -12 13 -19
5 -33z m674 -6 c-2 -20 -9 -32 -21 -34 -23 -5 -33 25 -15 46 9 9 13 24 10 32
-5 13 -3 13 12 1 11 -9 16 -25 14 -45z m273 44 c10 -6 19 -15 19 -20 0 -14
-34 -12 -48 2 -26 26 -7 37 29 18z m-735 -27 c-3 -8 -6 -17 -6 -19 0 -7 -25
-4 -39 5 -12 8 -12 12 -2 24 15 19 54 10 47 -10z m274 13 c0 -22 -29 -41 -42
-28 -8 8 -8 15 2 27 16 19 40 20 40 1z m-1545 -25 c0 -27 -13 -35 -34 -22 -8
5 -11 16 -6 30 9 30 40 23 40 -8z m1144 16 c8 -11 6 -18 -9 -32 -18 -16 -20
-16 -26 -1 -7 19 1 46 14 46 5 0 15 -6 21 -13z m800 0 c6 -8 8 -17 4 -20 -7
-8 -43 -10 -43 -3 0 2 -3 11 -6 20 -8 20 28 22 45 3z m-1875 -16 c10 -16 -5
-41 -25 -41 -20 0 -23 8 -13 34 7 17 29 21 38 7z m880 0 c7 -11 -20 -48 -29
-39 -9 8 4 48 15 48 5 0 11 -4 14 -9z m491 -1 c4 -6 1 -17 -5 -26 -10 -11 -16
-12 -26 -3 -11 9 -11 15 -3 25 14 17 25 18 34 4z m425 -15 c0 -26 -14 -33 -25
-15 -9 14 1 40 15 40 5 0 10 -11 10 -25z m-1526 9 c20 -8 20 -28 0 -44 -12
-11 -18 -10 -31 3 -13 13 -14 19 -3 31 14 18 13 18 34 10z m132 -9 c4 -8 0
-22 -7 -31 -11 -13 -14 -13 -27 0 -17 17 -9 46 13 46 9 0 18 -7 21 -15z m124
0 c10 -12 10 -18 0 -30 -7 -8 -18 -15 -25 -15 -7 0 -18 7 -25 15 -10 12 -10
18 0 30 7 8 18 15 25 15 7 0 18 -7 25 -15z m124 -36 c-13 -14 -21 -16 -35 -8
-24 12 -24 35 -2 48 13 7 23 5 36 -6 16 -15 16 -18 1 -34z m884 28 c4 -20 -25
-34 -40 -19 -15 15 -1 44 19 40 10 -2 19 -11 21 -21z m-1460 -14 c-3 -31 -34
-44 -44 -19 -7 19 12 46 33 46 10 0 13 -9 11 -27z m709 11 c3 -8 -2 -23 -11
-32 -15 -15 -17 -15 -32 0 -9 9 -14 24 -11 32 8 21 46 21 54 0z m481 -7 c4
-20 -25 -34 -39 -20 -14 14 1 45 20 41 9 -2 17 -11 19 -21z m774 6 c23 -21 23
-29 -2 -36 -22 -6 -46 25 -35 43 9 14 16 13 37 -7z m-1882 -23 c0 -25 -4 -30
-25 -30 -31 0 -34 29 -5 37 11 3 20 9 20 14 0 5 2 9 5 9 3 0 5 -13 5 -30z
m790 2 c0 -13 -23 -32 -37 -32 -19 0 -27 28 -13 45 9 11 17 12 31 4 10 -5 19
-13 19 -17z m190 12 c11 -12 10 -18 -3 -32 -16 -15 -18 -15 -34 0 -13 14 -14
20 -3 32 7 9 16 16 20 16 4 0 13 -7 20 -16z m275 -24 c-5 -17 -10 -19 -21 -9
-10 8 -11 16 -3 31 14 26 34 8 24 -22z m568 18 c7 -25 1 -38 -18 -38 -13 0
-25 21 -25 46 0 23 37 16 43 -8z m-233 -6 c0 -23 -19 -42 -41 -42 -27 0 -33
19 -13 41 22 24 54 25 54 1z m168 -15 c3 -22 -1 -27 -18 -27 -23 0 -35 22 -26
46 10 25 41 12 44 -19z m-1698 -41 c-7 -9 -18 -16 -26 -16 -19 0 -28 38 -13
56 11 13 15 13 32 -5 17 -17 18 -22 7 -35z m123 2 c-15 -17 -17 -17 -35 -1
-17 15 -17 17 -1 35 15 17 17 17 35 1 17 -15 17 -17 1 -35z m976 39 c8 -10 7
-19 -3 -32 -12 -16 -16 -17 -29 -6 -13 10 -14 16 -4 32 14 22 21 24 36 6z
m288 -3 c3 -8 -1 -22 -9 -30 -12 -12 -17 -12 -33 0 -16 12 -17 16 -6 30 17 20
40 21 48 0z m-1140 -10 c3 -8 -2 -23 -11 -32 -15 -15 -17 -15 -33 0 -13 14
-14 20 -3 32 16 20 39 20 47 0z m117 10 c21 -8 20 -40 -1 -48 -9 -4 -23 0 -31
8 -13 12 -13 18 -2 30 14 18 13 18 34 10z m140 -17 c16 -25 -16 -56 -38 -37
-19 15 -20 32 -4 48 15 15 28 11 42 -11z m116 11 c0 -24 -18 -41 -34 -35 -14
5 -15 11 -6 27 12 22 40 27 40 8z m1004 -4 c8 -21 -1 -34 -25 -34 -14 0 -19 7
-19 25 0 29 34 36 44 9z m-1858 -9 c6 -14 -11 -45 -25 -45 -19 1 -32 20 -26
39 7 24 43 29 51 6z m1014 0 c16 -20 6 -45 -19 -45 -26 0 -34 15 -21 40 13 24
23 25 40 5z m478 -8 c4 -20 -25 -34 -40 -19 -15 15 -1 44 19 40 10 -2 19 -11
21 -21z m-262 2 c9 -16 -20 -41 -39 -33 -17 6 -22 25 -10 37 10 11 41 8 49 -4z
m-1170 -14 c4 -8 3 -23 0 -32 -6 -15 -8 -15 -23 -1 -16 17 -12 48 7 48 6 0 13
-7 16 -15z m838 -28 c-7 -19 -29 -23 -39 -7 -3 5 -1 19 6 31 9 19 13 19 25 7
8 -8 12 -22 8 -31z m203 27 c3 -8 1 -20 -5 -26 -15 -15 -43 8 -35 28 7 19 32
18 40 -2z m997 0 c10 -25 7 -31 -14 -37 -22 -6 -46 25 -35 43 10 16 42 12 49
-6z m-704 -14 c0 -24 -26 -38 -42 -22 -8 8 -8 15 2 27 18 21 40 19 40 -5z
m630 0 c13 -25 5 -40 -20 -40 -23 0 -38 39 -19 51 21 13 27 11 39 -11z m-1896
4 c9 -3 16 -17 16 -30 0 -19 -5 -24 -25 -24 -25 0 -31 13 -19 44 7 18 7 18 28
10z m180 -39 c-8 -20 -35 -27 -50 -14 -19 16 -17 36 3 48 21 11 55 -13 47 -34z
m1246 30 c10 -12 10 -18 0 -30 -26 -31 -59 -11 -40 25 13 24 23 25 40 5z m136
4 c3 -6 -1 -18 -9 -27 -13 -12 -19 -13 -31 -3 -8 7 -12 19 -9 27 6 17 39 19
49 3z m-1269 -15 c3 -8 -2 -23 -11 -32 -15 -15 -17 -15 -33 0 -13 14 -14 20
-3 32 16 20 39 20 47 0z m123 1 c10 -12 10 -18 0 -30 -7 -8 -18 -15 -25 -15
-7 0 -18 7 -25 15 -10 12 -10 18 0 30 7 8 18 15 25 15 7 0 18 -7 25 -15z m130
-1 c11 -12 10 -18 -3 -31 -15 -15 -18 -15 -37 2 -15 14 -17 21 -9 32 15 17 34
17 49 -3z m127 0 c3 -8 -2 -23 -11 -32 -15 -15 -17 -15 -33 1 -17 17 -17 19 1
33 25 18 35 18 43 -2z m482 3 c8 -10 7 -19 -3 -32 -12 -16 -16 -17 -30 -6 -12
10 -13 18 -5 32 12 22 22 24 38 6z m665 -3 c12 -31 6 -44 -19 -44 -20 0 -25 5
-25 23 0 38 32 53 44 21z m-987 -20 c3 -8 -2 -23 -11 -32 -15 -15 -17 -15 -33
0 -13 14 -14 20 -3 32 16 20 39 20 47 0z m202 3 c8 -10 7 -19 -4 -33 -13 -18
-15 -18 -31 -2 -18 18 -13 48 9 48 8 0 20 -6 26 -13z m271 -11 c0 -14 -5 -28
-10 -31 -13 -8 -24 20 -16 40 9 24 26 17 26 -9z m450 -1 c0 -28 -38 -55 -50
-35 -4 6 -5 22 -2 36 6 35 52 35 52 -1z m-1915 5 c10 -16 -5 -50 -21 -50 -17
0 -28 24 -20 45 6 17 32 20 41 5z m1785 -16 c11 -12 10 -18 -3 -32 -16 -15
-18 -15 -34 0 -13 14 -14 20 -3 32 7 9 16 16 20 16 4 0 13 -7 20 -16z"/>
<path d="M3421 1674 c-14 -24 -21 -52 -21 -90 0 -114 -21 -250 -55 -349 -52
-154 -144 -350 -184 -392 -22 -23 -28 -53 -11 -53 7 0 8 -13 4 -35 -5 -28 -3
-35 10 -35 19 0 21 -11 4 -29 -11 -11 -9 -13 10 -8 21 5 23 3 18 -18 -3 -13
-1 -25 4 -27 9 -3 -43 -94 -140 -248 -18 -28 -20 -38 -10 -54 10 -16 9 -18 -3
-13 -13 5 -55 -32 -112 -101 -19 -23 -19 -23 1 -16 17 7 17 6 5 -9 -7 -9 -21
-17 -31 -17 -17 0 -70 -52 -70 -70 0 -5 -5 -10 -11 -10 -15 0 -38 -30 -39 -49
0 -8 -7 -23 -17 -33 -15 -17 -14 -18 23 -18 22 0 46 6 53 12 11 10 14 10 18 1
7 -20 44 -15 70 9 l23 21 0 -21 c0 -18 6 -22 30 -22 20 0 28 4 24 13 -3 8 2
20 10 27 21 16 50 5 44 -18 -4 -16 2 -18 51 -19 52 -1 70 7 71 31 0 5 -7 3
-15 -4 -23 -19 -48 5 -32 31 16 25 47 25 47 0 0 -11 5 -23 11 -26 6 -4 8 -13
5 -21 -4 -11 4 -14 34 -14 28 0 38 4 34 13 -2 7 4 21 15 32 17 15 23 16 36 5
9 -7 13 -21 10 -31 -6 -17 -1 -19 41 -19 40 0 45 2 34 15 -10 12 -10 18 0 30
16 19 34 19 50 0 10 -12 10 -18 0 -30 -11 -13 -6 -15 35 -15 39 0 45 2 36 14
-6 7 -9 20 -5 29 9 24 37 30 51 11 11 -15 10 -21 -3 -35 -14 -16 -9 -17 70
-17 80 0 85 1 76 18 -14 25 -13 28 12 41 18 10 24 8 35 -7 11 -15 10 -20 -3
-35 -14 -16 -9 -17 94 -17 99 0 109 1 105 17 -2 10 3 23 12 31 13 11 18 10 29
-6 10 -13 11 -23 4 -31 -8 -10 -1 -13 34 -13 41 0 44 2 43 27 0 18 6 29 16 31
21 4 33 -26 18 -44 -9 -11 -5 -14 24 -14 29 0 34 3 30 18 -2 10 3 24 11 31 21
17 50 -4 43 -31 -4 -15 1 -18 40 -18 37 0 43 3 34 13 -8 11 -6 18 9 32 26 23
54 13 46 -18 -5 -22 -3 -24 50 -25 30 -1 64 4 74 10 14 9 22 9 32 1 9 -8 61
-11 146 -11 120 1 132 3 127 18 -7 21 19 45 37 34 7 -5 20 -9 28 -9 9 0 15 -9
14 -22 0 -20 5 -23 33 -23 18 0 43 6 54 13 17 9 23 9 26 0 8 -23 33 -15 30 9
-3 30 37 38 52 10 6 -11 7 -22 4 -26 -3 -3 8 -6 25 -6 18 0 32 5 32 10 0 6 -6
10 -14 10 -8 0 -18 10 -22 22 -5 16 -1 26 15 36 17 12 21 24 21 73 0 44 -4 59
-14 59 -24 0 -29 33 -7 50 17 12 20 26 19 77 -1 49 -4 60 -15 56 -15 -6 -33
12 -33 35 0 6 9 12 19 12 11 0 22 -6 24 -12 3 -7 6 4 6 24 1 27 -3 36 -12 32
-20 -7 -43 24 -29 38 8 8 15 8 27 -2 13 -11 15 -8 15 25 0 22 -7 46 -17 57
-15 17 -15 18 0 18 34 0 18 44 -28 78 -47 34 -61 39 -67 21 -5 -14 -38 0 -38
17 0 9 6 11 18 7 15 -6 15 -5 3 11 -8 9 -20 15 -28 12 -8 -3 -12 -2 -9 3 11
17 -21 33 -44 21 -27 -14 -47 -2 -24 14 15 11 13 15 -19 35 -20 12 -41 20 -47
16 -6 -3 -13 1 -16 10 -7 18 -61 50 -86 50 -10 0 -18 5 -18 10 -1 13 -59 44
-82 45 -10 0 -27 9 -37 19 -11 11 -36 24 -55 30 -20 5 -48 19 -62 30 -15 12
-34 21 -44 21 -10 0 -29 9 -43 20 -27 22 -42 26 -32 10 4 -6 -5 -10 -19 -10
-29 0 -37 20 -8 20 9 1 0 10 -22 20 -22 11 -44 19 -50 19 -6 -1 -20 -1 -31 0
-15 1 -16 4 -7 10 9 5 0 13 -30 24 -24 10 -49 17 -57 17 -7 0 -19 7 -27 15 -9
8 -27 18 -42 21 -15 4 -35 14 -44 22 -16 14 -18 13 -18 -2 0 -12 -7 -16 -22
-14 -25 4 -37 28 -14 28 28 0 17 18 -14 25 -16 4 -30 10 -30 14 0 4 -12 14
-28 23 -23 14 -30 14 -46 2 -23 -16 -39 -8 -33 17 4 14 -7 24 -48 44 -30 14
-61 25 -70 25 -9 0 -29 9 -43 21 -20 15 -35 19 -58 14 -31 -5 -33 -4 -44 42
-6 26 -14 63 -17 81 -3 18 -9 35 -14 38 -5 3 -9 15 -9 26 0 17 -41 68 -55 68
-1 0 -12 -16 -24 -36z m72 -86 c-3 -6 -12 -3 -20 5 -9 9 -12 20 -8 28 6 9 11
8 21 -6 7 -10 11 -22 7 -27z m-37 -35 c-10 -10 -19 5 -10 18 6 11 8 11 12 0 2
-7 1 -15 -2 -18z m67 -23 c6 -24 -8 -36 -17 -14 -8 22 -7 34 3 34 5 0 11 -9
14 -20z m-26 -25 c8 -22 -6 -33 -17 -15 -13 20 -12 30 0 30 6 0 13 -7 17 -15z
m-37 -41 c0 -8 -7 -14 -15 -14 -15 0 -21 21 -9 33 10 9 24 -2 24 -19z m90 -31
c0 -18 -17 -16 -24 3 -8 22 4 40 15 23 5 -8 9 -20 9 -26z m-30 -15 c0 -19 -2
-20 -10 -8 -13 19 -13 30 0 30 6 0 10 -10 10 -22z m100 -3 c13 -16 6 -35 -15
-35 -18 0 -28 17 -21 35 7 19 20 19 36 0z m-125 -16 c6 -19 0 -38 -9 -28 -10
12 -16 49 -7 49 5 0 13 -9 16 -21z m238 -13 c8 -20 -20 -43 -35 -28 -14 14 -3
42 16 42 7 0 16 -6 19 -14z m-265 -24 c2 -12 -1 -22 -6 -22 -15 0 -34 28 -27
40 10 17 30 6 33 -18z m102 3 c0 -14 -4 -25 -10 -25 -5 0 -10 11 -10 25 0 14
5 25 10 25 6 0 10 -11 10 -25z m-30 -26 c0 -10 -4 -19 -10 -19 -5 0 -10 12
-10 26 0 14 4 23 10 19 6 -3 10 -15 10 -26z m125 11 c3 -5 15 -10 25 -10 20 0
36 -17 26 -27 -3 -3 -12 -1 -19 6 -8 6 -22 9 -31 5 -9 -3 -23 -3 -32 0 -13 5
-14 9 -4 21 14 17 26 19 35 5z m-160 -49 c-8 -35 -20 -40 -28 -11 -6 22 8 37
16 18 3 -7 6 -2 6 11 1 13 4 22 7 18 3 -3 3 -19 -1 -36z m265 14 c7 -9 10 -18
7 -22 -8 -7 -37 15 -37 28 0 14 16 11 30 -6z m-176 -21 c8 -22 -4 -40 -15 -23
-11 18 -11 39 0 39 5 0 12 -7 15 -16z m101 -4 c3 -5 -1 -10 -9 -10 -9 0 -16 5
-16 10 0 6 4 10 9 10 6 0 13 -4 16 -10z m182 -6 c7 -18 -17 -38 -31 -24 -11
11 -1 40 14 40 6 0 13 -7 17 -16z m-407 -13 c7 -14 7 -22 -1 -27 -12 -7 -29
12 -29 34 0 19 18 14 30 -7z m100 -22 c0 -19 -20 -18 -30 1 -15 28 -1 49 17
25 7 -11 13 -22 13 -26z m80 10 c0 -5 -4 -9 -10 -9 -5 0 -10 7 -10 16 0 8 5
12 10 9 6 -3 10 -10 10 -16z m108 -1 c2 -12 -2 -15 -17 -11 -12 3 -21 12 -21
20 0 20 34 12 38 -9z m52 -3 c10 -12 9 -16 -5 -21 -16 -6 -34 9 -35 29 0 13
27 8 40 -8z m-280 -26 c0 -10 -6 -19 -13 -19 -7 0 -21 -13 -30 -30 -20 -32
-32 -38 -40 -17 -3 8 10 26 29 41 19 15 34 34 34 42 0 8 5 12 10 9 6 -3 10
-15 10 -26z m90 -30 c0 -10 -4 -19 -10 -19 -5 0 -10 12 -10 26 0 14 4 23 10
19 6 -3 10 -15 10 -26z m100 21 c0 -12 -35 -31 -44 -23 -15 15 -4 33 19 33 14
0 25 -4 25 -10z m196 -1 c9 -16 -12 -33 -31 -25 -14 5 -15 9 -5 21 15 18 26
19 36 4z m104 -25 c0 -16 -35 -19 -45 -5 -6 11 26 32 37 25 5 -3 8 -12 8 -20z
m66 -1 c-8 -8 -36 5 -36 17 0 7 6 7 21 0 11 -7 18 -14 15 -17z m-496 -13 c0
-10 -4 -21 -9 -25 -12 -7 -25 31 -16 45 9 15 25 2 25 -20z m248 12 c2 -7 -2
-10 -12 -6 -9 3 -16 11 -16 16 0 13 23 5 28 -10z m-40 -11 c3 -10 -1 -12 -17
-8 -18 4 -21 2 -16 -14 8 -23 -7 -25 -25 -4 -10 12 -10 18 0 30 16 19 51 16
58 -4z m-122 -36 c-3 -10 -12 -15 -20 -12 -8 3 -17 -3 -21 -16 l-8 -22 -4 22
c-2 12 3 34 13 48 15 23 19 24 32 11 8 -8 12 -22 8 -31z m-126 20 c0 -8 0 -18
1 -22 0 -4 -4 -9 -9 -11 -12 -4 -24 26 -16 39 8 14 24 11 24 -6z m608 -2 c5
-18 -10 -16 -34 2 -18 15 -18 15 5 13 14 -2 26 -9 29 -15z m-263 -2 c10 -17
-12 -21 -25 -6 -10 12 -10 15 3 15 9 0 18 -4 22 -9z m73 -24 c4 -20 -25 -34
-39 -20 -14 14 1 45 20 41 9 -2 17 -11 19 -21z m107 13 c-3 -5 -12 -10 -20
-10 -8 0 -17 5 -20 10 -4 6 5 10 20 10 15 0 24 -4 20 -10z m-638 -23 c-2 -6
-10 -13 -18 -15 -8 -3 -11 -1 -7 3 4 5 3 14 -3 21 -8 9 -5 11 11 7 11 -3 19
-10 17 -16z m78 0 c0 -26 -20 -25 -23 2 -3 16 1 22 10 19 7 -3 13 -12 13 -21z
m345 -9 c0 -6 -7 -5 -15 2 -8 7 -15 17 -15 22 0 6 7 5 15 -2 8 -7 15 -17 15
-22z m-370 -26 c0 -7 -4 -10 -10 -7 -5 3 -10 -1 -10 -9 0 -9 -4 -16 -10 -16
-13 0 -13 13 2 45 8 18 14 22 20 13 4 -7 8 -19 8 -26z m120 7 c0 -10 -4 -19
-9 -19 -10 0 -21 36 -14 44 10 10 23 -5 23 -25z m519 18 c12 -15 5 -27 -16
-27 -7 0 -13 9 -13 20 0 23 13 26 29 7z m129 -8 c4 -22 -32 -30 -55 -13 -17
13 -17 13 0 14 9 0 17 5 17 11 0 17 34 6 38 -12z m-548 -10 c0 -11 -4 -17 -10
-14 -5 3 -10 13 -10 21 0 8 5 14 10 14 6 0 10 -9 10 -21z m108 -12 c5 -24 -15
-21 -28 4 -10 18 -9 20 7 17 10 -2 19 -11 21 -21z m111 -15 c-3 -7 -11 -5 -23
3 -10 8 -15 19 -11 25 9 14 40 -12 34 -28z m-349 3 c0 -14 -4 -25 -9 -25 -12
0 -23 29 -15 41 10 18 24 9 24 -16z m204 -2 c4 -9 2 -21 -3 -26 -14 -14 -42
10 -34 29 7 19 29 18 37 -3z m-239 -41 c-6 -16 -7 -16 -17 1 -5 10 -7 26 -3
35 6 16 7 16 17 -1 5 -10 7 -26 3 -35z m139 5 c-3 -9 -17 -17 -30 -17 -19 0
-24 5 -24 24 0 15 7 26 18 29 23 5 44 -16 36 -36z m400 26 c4 -9 2 -21 -3 -26
-14 -14 -42 10 -34 29 7 19 29 18 37 -3z m105 3 c8 -10 8 -16 -3 -25 -16 -13
-46 -5 -46 13 0 28 30 35 49 12z m-304 -12 c12 -12 13 -19 4 -30 -6 -8 -18
-14 -26 -14 -19 0 -28 27 -13 45 15 19 15 19 35 -1z m405 6 c0 -5 -2 -10 -4
-10 -3 0 -8 5 -11 10 -3 6 -1 10 4 10 6 0 11 -4 11 -10z m75 1 c3 -5 1 -12 -4
-15 -12 -8 -41 3 -41 15 0 12 37 12 45 0z m75 -11 c12 -8 11 -10 -7 -10 -13 0
-23 5 -23 10 0 13 11 13 30 0z m-1000 -25 c0 -15 -6 -25 -14 -25 -7 0 -19 -7
-26 -15 -16 -19 -30 -19 -30 0 0 8 9 19 20 25 11 6 20 17 20 25 0 8 7 15 15
15 9 0 15 -9 15 -25z m75 4 c8 -23 1 -34 -14 -24 -13 8 -15 45 -2 45 5 0 13
-9 16 -21z m92 -16 c-3 -10 -5 -4 -5 12 0 17 2 24 5 18 2 -7 2 -21 0 -30z
m383 16 c0 -24 -23 -21 -28 4 -2 10 3 17 12 17 10 0 16 -9 16 -21z m336 -3
c10 -8 16 -17 13 -20 -3 -4 -17 2 -30 13 -27 23 -13 28 17 7z m-846 -27 c0
-17 -4 -28 -10 -24 -5 3 -10 1 -10 -4 0 -6 -5 -11 -12 -11 -9 0 -9 3 0 12 7 7
12 22 12 35 0 13 5 23 10 23 6 0 10 -14 10 -31z m770 -5 c0 -15 -10 -17 -34
-8 -19 7 -21 30 -3 37 15 6 37 -11 37 -29z m39 22 c9 -10 9 -16 1 -21 -12 -7
-40 11 -40 26 0 14 26 10 39 -5z m109 -9 c2 -12 -1 -15 -12 -11 -22 8 -20 -13
2 -25 9 -6 12 -11 6 -11 -6 0 -18 8 -26 18 -12 15 -14 24 -9 48 3 13 36 -3 39
-19z m-808 -12 c0 -8 -4 -17 -10 -20 -6 -4 -10 5 -10 20 0 15 4 24 10 20 6 -3
10 -12 10 -20z m245 4 c4 -11 4 -23 1 -26 -8 -9 -36 17 -36 33 0 22 28 16 35
-7z m205 -4 c0 -8 -4 -17 -10 -20 -6 -4 -10 5 -10 20 0 15 4 24 10 20 6 -3 10
-12 10 -20z m100 -4 c0 -3 -5 -13 -10 -21 -9 -13 -12 -12 -25 4 -19 25 -1 53
21 35 8 -6 14 -14 14 -18z m327 12 c3 -7 -3 -9 -16 -6 -12 3 -21 10 -21 15 0
13 32 6 37 -9z m-747 -14 c0 -11 -4 -17 -10 -14 -5 3 -10 13 -10 21 0 8 5 14
10 14 6 0 10 -9 10 -21z m237 5 c3 -8 1 -20 -6 -27 -14 -14 -47 15 -37 32 10
16 36 13 43 -5z m593 -4 c0 -17 -34 -20 -49 -4 -15 15 -14 16 2 11 9 -4 17 -2
17 3 0 5 7 7 15 4 8 -4 15 -10 15 -14z m-990 -19 c0 -11 -4 -23 -10 -26 -6 -4
-10 5 -10 19 0 14 5 26 10 26 6 0 10 -9 10 -19z m117 -10 c18 -22 20 -31 10
-39 -9 -8 -16 0 -29 29 -19 46 -12 49 19 10z m112 10 c8 -14 7 -22 -3 -30 -16
-14 -26 -4 -26 26 0 28 15 30 29 4z m555 3 c20 -8 21 -30 2 -37 -16 -6 -50 26
-39 36 8 9 17 9 37 1z m150 0 c9 -3 16 -12 16 -20 0 -8 4 -14 9 -14 5 0 19
-13 31 -30 30 -42 13 -37 -42 14 -58 52 -62 68 -14 50z m-964 -28 c0 -14 -4
-28 -10 -31 -6 -4 -10 7 -10 24 0 17 5 31 10 31 6 0 10 -11 10 -24z m104 8 c9
-24 7 -34 -8 -34 -16 0 -29 27 -20 41 8 14 21 11 28 -7z m461 -4 c8 -25 -1
-41 -20 -34 -16 7 -27 32 -19 45 9 16 32 10 39 -11z m91 -16 c-5 -13 -10 -14
-18 -6 -6 6 -8 18 -4 28 5 13 10 14 18 6 6 -6 8 -18 4 -28z m-281 6 c0 -22
-39 -19 -43 3 -3 15 1 18 20 15 12 -2 23 -10 23 -18z m394 6 c9 -10 9 -16 1
-21 -12 -7 -40 11 -40 26 0 14 26 10 39 -5z m-859 -12 c0 -19 -40 -64 -57 -64
-20 0 -15 30 10 56 26 27 47 31 47 8z m553 2 c3 -8 0 -22 -7 -31 -11 -15 -13
-15 -25 -1 -11 13 -11 19 -1 31 16 19 26 19 33 1z m463 0 c22 -17 11 -35 -13
-20 -19 12 -29 34 -16 34 5 0 18 -6 29 -14z m117 -8 c8 -30 5 -30 -16 -2 -14
19 -15 24 -4 24 8 0 17 -10 20 -22z m81 13 c7 -10 -43 -25 -52 -16 -7 7 18 25
35 25 6 0 14 -4 17 -9z m-1314 -20 c12 18 22 6 14 -15 -9 -24 -29 -14 -31 15
-1 17 0 19 4 5 4 -15 7 -16 13 -5z m155 -18 c-7 -17 -8 -17 -15 2 -9 24 -2 41
12 27 6 -6 7 -19 3 -29z m105 6 c0 -10 -4 -19 -9 -19 -12 0 -23 29 -15 41 8
14 24 0 24 -22z m260 -8 c0 -5 -6 -14 -14 -20 -17 -14 -41 11 -32 34 4 13 10
14 26 5 11 -6 20 -14 20 -19z m388 16 c7 -8 6 -18 -4 -32 -13 -18 -15 -18 -31
-3 -13 14 -14 20 -3 32 15 19 24 20 38 3z m157 -3 c12 -13 13 -19 4 -30 -10
-12 -15 -12 -30 2 -14 13 -16 20 -8 31 14 16 14 16 34 -3z m-943 -46 c-17 -17
-24 -4 -16 28 7 28 7 28 17 6 7 -16 7 -26 -1 -34z m104 6 c-5 -13 -10 -14 -18
-6 -6 6 -8 18 -4 28 5 13 10 14 18 6 6 -6 8 -18 4 -28z m480 21 c8 -20 -16
-49 -29 -36 -11 11 0 51 14 51 5 0 12 -7 15 -15z m99 -15 c0 -13 -6 -25 -12
-27 -16 -6 -27 21 -19 43 9 23 31 11 31 -16z m-460 -1 c4 -11 4 -23 1 -26 -8
-9 -36 17 -36 33 0 22 28 16 35 -7z m42 6 c0 -8 -6 -15 -14 -15 -14 0 -17 12
-6 23 11 11 20 8 20 -8z m216 3 c6 -19 -3 -38 -18 -38 -15 0 -28 27 -19 41 8
13 32 11 37 -3z m414 -3 c3 -9 3 -19 -1 -22 -7 -7 -36 16 -36 28 0 15 30 10
37 -6z m167 -2 c4 -9 2 -21 -4 -27 -13 -13 -46 17 -36 33 11 16 33 13 40 -6z
m144 0 c2 -8 -5 -13 -17 -13 -13 0 -21 -6 -21 -16 0 -20 -24 -13 -28 9 -2 10
3 17 12 17 9 0 16 5 16 11 0 14 32 7 38 -8z m92 -3 c0 -12 -37 -23 -50 -15 -5
3 -10 11 -10 16 0 6 4 8 9 4 5 -3 12 -1 16 4 6 11 35 3 35 -9z m-1239 -43 c-8
-8 -11 -4 -11 14 0 33 14 47 18 19 2 -12 -1 -27 -7 -33z m277 31 c8 -8 9 -15
1 -25 -18 -21 -39 -15 -39 12 0 27 18 33 38 13z m512 -4 c11 -12 11 -18 -2
-30 -18 -18 -48 -8 -48 16 0 16 11 27 31 29 4 1 12 -6 19 -15z m-671 -13 c14
-26 -10 -48 -29 -26 -13 16 -7 45 9 45 6 0 15 -9 20 -19z m831 4 c13 -16 6
-35 -14 -35 -18 0 -39 27 -31 40 9 14 31 12 45 -5z m-1159 -28 c-8 -8 -11 -7
-11 4 0 20 13 34 18 19 3 -7 -1 -17 -7 -23z m189 8 c0 -14 -4 -25 -10 -25 -5
0 -10 11 -10 25 0 14 5 25 10 25 6 0 10 -11 10 -25z m388 1 c2 -10 -1 -23 -6
-28 -12 -12 -36 27 -27 43 10 15 29 5 33 -15z m212 9 c10 -12 10 -19 2 -27
-15 -15 -48 14 -38 31 10 15 21 14 36 -4z m-740 -19 c0 -8 -6 -19 -14 -25 -20
-17 -30 3 -14 28 13 21 28 19 28 -3z m80 -3 c0 -26 1 -26 15 -7 14 18 14 18
15 -4 0 -13 -7 -30 -15 -38 -13 -13 -15 -13 -15 -1 0 8 -7 20 -15 27 -13 10
-15 9 -15 -9 0 -22 -24 -29 -36 -10 -6 11 42 69 58 69 4 0 8 -12 8 -27z m762
21 c7 -7 -2 -44 -11 -44 -17 1 -33 20 -28 34 6 16 28 22 39 10z m388 -9 c15
-18 5 -35 -20 -35 -22 0 -34 15 -26 35 7 19 30 19 46 0z m110 5 c0 -5 -7 -10
-15 -10 -8 0 -15 5 -15 10 0 6 7 10 15 10 8 0 15 -4 15 -10z m80 -24 c0 -8 7
-16 15 -20 18 -7 20 -26 2 -26 -18 0 -70 58 -62 70 8 14 45 -6 45 -24z m-1183
-20 c-6 -19 -25 -17 -32 3 -10 31 5 48 22 25 7 -10 12 -23 10 -28z m398 19 c0
-22 -31 -33 -48 -16 -7 7 -6 15 3 26 17 21 45 15 45 -10z m413 13 c16 -16 15
-28 -3 -28 -8 0 -15 2 -15 4 0 2 -3 11 -6 20 -7 19 7 21 24 4z m444 -6 c-7 -2
-9 -8 -6 -14 4 -6 -3 -8 -17 -6 -28 4 -36 25 -12 30 22 5 53 -4 35 -10z
m-1006 -17 c4 -8 3 -23 0 -32 -6 -15 -8 -15 -23 -1 -16 17 -12 48 7 48 6 0 13
-7 16 -15z m525 -1 c10 -13 10 -17 -2 -25 -8 -5 -17 -9 -20 -9 -13 0 -31 29
-24 40 9 15 31 12 46 -6z m329 -14 c0 -14 -14 -12 -28 2 -19 19 -14 30 8 18
11 -6 20 -15 20 -20z m-1140 -21 c0 -19 -20 -18 -30 1 -15 28 -1 49 17 25 7
-11 13 -22 13 -26z m150 32 c0 -6 -5 -13 -10 -16 -15 -9 -43 3 -35 15 8 13 45
13 45 1z m543 -4 c3 -8 1 -20 -4 -28 -11 -19 -32 2 -23 24 7 20 20 22 27 4z
m278 -3 c10 -13 10 -17 -1 -24 -16 -10 -53 17 -44 31 8 14 30 10 45 -7z m-474
-10 c3 -8 -1 -23 -10 -31 -23 -23 -52 0 -36 28 12 23 37 25 46 3z m100 -28
c-8 -20 -36 -21 -43 -1 -4 8 0 22 7 31 11 13 14 13 27 0 8 -8 12 -22 9 -30z
m492 35 c16 -10 6 -31 -14 -31 -17 0 -28 17 -20 30 8 12 16 12 34 1z m-899
-11 c0 -5 -4 -10 -10 -10 -5 0 -10 5 -10 10 0 6 5 10 10 10 6 0 10 -4 10 -10z
m184 -7 c4 -9 0 -23 -8 -31 -12 -12 -16 -12 -25 7 -7 12 -9 26 -6 31 10 16 32
12 39 -7z m932 2 c10 -8 14 -15 7 -15 -19 0 -43 11 -43 21 0 13 14 11 36 -6z
m-1351 -15 c7 -23 -2 -43 -16 -35 -12 8 -12 55 0 55 5 0 12 -9 16 -20z m965 5
c10 -12 9 -16 -4 -21 -18 -7 -49 13 -40 27 8 14 30 11 44 -6z m-824 -6 c3 -6
2 -15 -3 -20 -13 -13 -43 -1 -43 17 0 16 36 19 46 3z m140 -1 c10 -16 10 -50
0 -66 -5 -9 -12 -9 -27 -1 -20 10 -20 12 -3 30 14 15 14 21 4 34 -10 12 -10
15 3 15 9 0 19 -6 23 -12z m513 -1 c15 -19 -12 -57 -29 -41 -12 12 -5 54 9 54
5 0 14 -6 20 -13z m461 4 c0 -15 -16 -22 -34 -15 -25 9 -19 24 9 24 14 0 25
-4 25 -9z m166 -5 c22 -17 11 -35 -13 -20 -19 12 -29 34 -16 34 5 0 18 -6 29
-14z m-1655 -19 c-10 -9 -11 -8 -5 6 3 10 9 15 12 12 3 -3 0 -11 -7 -18z m39
4 c0 -20 -13 -35 -23 -25 -7 8 4 44 14 44 5 0 9 -9 9 -19z m1105 9 c4 -6 4
-18 1 -26 -5 -12 -9 -12 -26 -2 -11 7 -20 18 -20 25 0 16 36 17 45 3z m179 1
c9 -13 -19 -32 -38 -25 -17 6 -20 16 -9 27 9 10 41 9 47 -2z m-1234 -15 c0
-16 -28 -42 -36 -33 -8 7 14 47 26 47 6 0 10 -6 10 -14z m110 -11 c0 -14 -4
-25 -10 -25 -5 0 -10 11 -10 25 0 14 5 25 10 25 6 0 10 -11 10 -25z m246 -4
c-9 -13 -46 -15 -46 -1 0 14 34 30 44 20 4 -4 5 -13 2 -19z m162 0 c3 -16 -1
-22 -10 -19 -7 3 -15 15 -16 27 -3 16 1 22 10 19 7 -3 15 -15 16 -27z m218 14
c4 -8 3 -22 0 -31 -6 -15 -8 -15 -26 1 -15 14 -17 21 -9 32 15 17 28 17 35 -2z
m611 0 c3 -9 3 -18 0 -21 -6 -7 -47 18 -47 28 0 15 41 8 47 -7z m153 5 c8 -5
11 -12 8 -16 -10 -9 -38 3 -38 16 0 12 10 13 30 0z m-1270 -15 c10 -12 10 -19
2 -27 -15 -15 -48 14 -38 31 10 15 21 14 36 -4z m618 -11 c4 -27 -26 -40 -46
-20 -13 13 -13 18 -2 31 18 21 44 15 48 -11z m619 10 c9 -23 -13 -40 -32 -24
-8 7 -15 19 -15 26 0 19 39 18 47 -2z m-1389 -25 c2 -23 2 -23 -13 -5 -18 24
-20 39 -2 34 6 -3 13 -15 15 -29z m547 21 c8 -14 -13 -40 -32 -40 -7 0 -16 7
-20 16 -10 26 38 47 52 24z m539 4 c9 -3 16 -12 16 -20 0 -16 -28 -18 -50 -4
-13 9 -13 11 0 20 18 12 15 11 34 4z m137 -10 c10 -13 10 -17 -2 -25 -8 -5
-17 -9 -20 -9 -13 0 -31 29 -24 40 9 15 31 12 46 -6z m-1261 -14 c0 -19 -20
-27 -33 -13 -8 7 11 33 24 33 5 0 9 -9 9 -20z m960 5 c10 -12 10 -18 0 -30
-16 -19 -39 -19 -46 0 -6 15 11 45 26 45 4 0 13 -7 20 -15z m420 -21 c0 -22
-22 -28 -36 -9 -18 24 1 52 22 34 8 -6 14 -17 14 -25z m164 30 c9 -3 16 -13
16 -20 0 -12 -4 -12 -20 -4 -11 6 -20 15 -20 20 0 12 3 12 24 4z m-1096 -28
c3 -13 -1 -17 -14 -14 -11 2 -20 11 -22 22 -3 13 1 17 14 14 11 -2 20 -11 22
-22z m-297 -2 c10 -13 10 -17 -1 -24 -17 -10 -40 5 -40 26 0 19 25 18 41 -2z
m928 2 c8 -10 9 -16 2 -21 -14 -8 -53 13 -46 26 9 13 31 11 44 -5z m448 -1 c3
-9 3 -18 0 -21 -10 -10 -47 7 -47 22 0 19 39 18 47 -1z m89 7 c6 -4 11 -21 12
-39 1 -30 -1 -31 -19 -20 -10 6 -17 17 -15 24 3 7 1 15 -5 18 -5 4 -7 11 -4
16 7 11 16 11 31 1z m-1775 -45 c-13 -13 -15 1 -4 30 7 17 8 17 11 -1 2 -10
-1 -23 -7 -29z m434 34 c8 -14 -28 -31 -44 -21 -8 4 -10 13 -7 19 9 13 43 15
51 2z m372 -7 c3 -8 -1 -23 -10 -31 -23 -23 -52 0 -36 28 12 23 37 25 46 3z
m103 -4 c12 -23 6 -40 -16 -40 -17 0 -28 24 -20 45 8 21 23 19 36 -5z m113 8
c6 -19 -3 -38 -18 -38 -18 0 -26 15 -19 34 7 19 31 21 37 4z m331 6 c20 -8 21
-30 2 -37 -19 -7 -51 17 -42 31 8 13 17 15 40 6z m-1304 -13 c0 -5 -6 -14 -14
-20 -12 -10 -13 -8 -9 8 5 21 23 30 23 12z m635 -16 c0 -28 -29 -25 -33 3 -3
19 0 23 15 20 10 -2 18 -12 18 -23z m802 9 c3 -8 1 -20 -6 -27 -14 -14 -47 15
-37 32 10 16 36 13 43 -5z m150 0 c3 -8 1 -20 -6 -27 -14 -14 -47 15 -37 32
10 16 36 13 43 -5z m-1563 -27 c-3 -9 -10 -17 -15 -17 -11 0 -12 34 -2 44 11
11 24 -9 17 -27z m190 17 c9 -24 7 -34 -8 -34 -13 0 -26 20 -26 41 0 15 27 10
34 -7z m246 2 c0 -20 -16 -29 -41 -21 -16 5 -18 10 -8 21 15 18 49 18 49 0z
m677 -2 c3 -8 -2 -23 -11 -32 -15 -15 -17 -15 -33 0 -13 14 -14 20 -3 32 16
20 39 20 47 0z m663 1 c0 -8 -4 -15 -9 -15 -5 0 -14 7 -21 15 -10 13 -9 15 9
15 12 0 21 -6 21 -15z m-1720 -14 c0 -17 -12 -41 -21 -41 -5 0 -9 11 -9 25 0
16 6 25 15 25 8 0 15 -4 15 -9z m249 -5 c10 -11 8 -16 -9 -21 -24 -8 -46 7
-36 24 10 15 31 14 45 -3z m204 0 c1 -5 -6 -14 -15 -20 -13 -8 -21 -7 -30 2
-10 10 -10 15 2 22 17 11 40 9 43 -4z m487 -22 c0 -24 -14 -32 -25 -14 -9 14
4 52 16 45 5 -4 9 -17 9 -31z m245 16 c0 -8 -8 -16 -18 -18 -21 -4 -49 16 -41
30 9 15 59 5 59 -12z m125 -14 c0 -20 -25 -27 -46 -11 -15 11 -16 15 -5 29 15
18 51 5 51 -18z m140 -2 c0 -22 -22 -28 -36 -9 -18 24 1 52 22 34 8 -6 14 -17
14 -25z m170 1 c0 -8 -4 -15 -8 -15 -13 0 -43 36 -36 43 10 10 44 -12 44 -28z
m-1522 -3 c4 -25 -13 -30 -22 -6 -9 25 -7 36 7 32 6 -3 13 -14 15 -26z m420
10 c2 -7 -6 -12 -17 -12 -21 0 -27 11 -14 24 9 9 26 2 31 -12z m216 -5 c8 -12
7 -20 -2 -29 -16 -16 -47 13 -38 37 7 19 25 16 40 -8z m-713 -14 c-8 -15 -10
-15 -11 -2 0 17 10 32 18 25 2 -3 -1 -13 -7 -23z m819 12 c15 -18 6 -45 -13
-45 -8 0 -20 7 -27 15 -10 12 -10 18 0 30 16 19 24 19 40 0z m-515 -14 c0 -8
-4 -16 -10 -18 -16 -5 -38 14 -30 26 9 16 40 9 40 -8z m291 4 c4 -8 1 -22 -6
-30 -11 -14 -15 -14 -31 1 -14 13 -16 20 -8 31 15 17 38 17 45 -2z m499 1 c16
-12 17 -16 6 -30 -17 -20 -35 -20 -51 -1 -10 12 -10 18 0 30 15 19 21 19 45 1z
m455 -1 c10 -12 9 -16 -4 -21 -22 -8 -46 2 -46 21 0 19 34 20 50 0z m-1724
-42 c-2 -3 -9 -2 -15 2 -8 4 -7 13 1 28 l13 22 3 -23 c2 -13 1 -26 -2 -29z
m224 27 c0 -11 -4 -20 -10 -20 -5 0 -10 9 -10 20 0 11 5 20 10 20 6 0 10 -9
10 -20z m129 7 c13 -16 5 -27 -20 -27 -21 0 -33 15 -24 30 9 14 31 12 44 -3z
m1045 -10 c16 -26 -13 -41 -36 -20 -14 12 -15 19 -6 30 13 16 28 13 42 -10z
m150 7 c7 -19 -12 -47 -25 -38 -5 3 -9 16 -9 30 0 27 24 33 34 8z m320 -7 c6
-9 7 -19 3 -23 -9 -9 -37 15 -37 33 0 18 20 12 34 -10z m-1830 -18 c-21 -24
-29 -18 -14 10 6 12 16 19 21 15 6 -4 4 -13 -7 -25z m521 22 c8 -14 -28 -31
-44 -21 -8 4 -10 13 -7 19 9 13 43 15 51 2z m592 -7 c2 -5 -3 -19 -11 -29 -14
-19 -15 -19 -21 -2 -4 9 -4 24 -1 33 6 16 27 15 33 -2z m-498 -16 c8 3 11 0 7
-7 -11 -17 -76 -14 -76 3 0 19 32 26 45 11 6 -6 16 -10 24 -7z m1169 10 c18
-18 14 -38 -7 -38 -23 0 -35 15 -27 35 7 18 18 19 34 3z m-1719 -39 c-12 -21
-14 -22 -17 -6 -6 28 6 53 19 40 8 -8 7 -18 -2 -34z m838 22 c10 -16 9 -22 -3
-32 -12 -10 -18 -9 -31 4 -13 13 -14 19 -3 31 16 21 23 20 37 -3z m118 -12 c0
-15 -7 -25 -18 -27 -22 -4 -33 24 -17 43 18 21 35 13 35 -16z m443 7 c2 -10
-1 -23 -6 -28 -12 -12 -36 27 -27 43 10 15 29 5 33 -15z m157 -1 c0 -13 -8
-21 -23 -23 -26 -4 -42 25 -21 39 22 14 44 6 44 -16z m-1356 1 c8 -10 8 -16
-2 -24 -15 -13 -37 2 -37 25 0 17 25 17 39 -1z m129 2 c-3 -7 -13 -13 -23 -13
-10 0 -20 6 -22 13 -3 7 5 12 22 12 17 0 25 -5 23 -12z m286 -5 c8 -19 -8 -38
-23 -29 -16 10 -13 46 3 46 8 0 17 -8 20 -17z m111 -4 c0 -7 -8 -15 -17 -17
-18 -3 -25 18 -11 32 10 10 28 1 28 -15z m499 5 c21 -21 20 -31 -6 -45 -18
-10 -24 -8 -35 7 -11 15 -10 20 4 36 20 22 18 22 37 2z m-1264 -4 c0 -5 -4
-10 -10 -10 -5 0 -10 5 -10 10 0 6 5 10 10 10 6 0 10 -4 10 -10z m80 0 c0 -5
-5 -10 -11 -10 -5 0 -7 5 -4 10 3 6 8 10 11 10 2 0 4 -4 4 -10z m364 -5 c8 -8
25 -14 38 -13 27 3 31 -20 6 -36 -14 -9 -21 -6 -34 12 -12 18 -22 22 -40 18
-26 -7 -31 3 -12 22 16 16 23 15 42 -3z m696 0 c10 -13 9 -19 -5 -35 -16 -18
-21 -19 -33 -6 -11 11 -11 18 -3 35 14 25 24 26 41 6z m570 -5 c9 -16 8 -22
-6 -27 -18 -7 -48 23 -38 38 9 16 33 9 44 -11z m-320 -5 c15 -18 6 -45 -13
-45 -8 0 -20 7 -27 15 -10 12 -10 18 0 30 16 19 24 19 40 0z m-1298 -17 c-7
-7 -12 -8 -12 -2 0 14 12 26 19 19 2 -3 -1 -11 -7 -17z m98 1 c0 -6 -4 -7 -10
-4 -5 3 -10 11 -10 16 0 6 5 7 10 4 6 -3 10 -11 10 -16z m1339 2 c16 -28 -13
-51 -36 -28 -18 18 -11 47 11 47 9 0 20 -9 25 -19z m-1599 0 c0 -13 -29 -35
-37 -28 -7 8 15 37 28 37 5 0 9 -4 9 -9z m380 -1 c12 -8 9 -10 -13 -10 -16 0
-26 4 -22 10 8 12 16 12 35 0z m304 -7 c9 -23 -12 -43 -24 -23 -5 8 -10 21
-10 28 0 18 27 15 34 -5z m436 -12 c0 -25 -11 -33 -26 -20 -10 8 -11 16 -3 30
12 22 29 16 29 -10z m608 6 c5 -24 -26 -33 -46 -13 -15 15 -15 18 -2 26 21 14
44 8 48 -13z m-829 0 c8 -11 6 -18 -8 -31 -16 -15 -20 -15 -31 -1 -15 18 -7
45 13 45 8 0 20 -6 26 -13z m111 -3 c11 -12 10 -18 -3 -32 -16 -15 -18 -15
-34 0 -13 14 -14 20 -3 32 7 9 16 16 20 16 4 0 13 -7 20 -16z m-970 -4 c0 -12
-28 -25 -36 -17 -9 9 6 27 22 27 8 0 14 -5 14 -10z m740 -6 c11 -12 10 -18 -3
-32 -16 -15 -18 -15 -34 0 -13 14 -14 20 -3 32 7 9 16 16 20 16 4 0 13 -7 20
-16z m494 -7 c16 -25 -16 -56 -38 -37 -19 15 -20 32 -4 48 15 15 28 11 42 -11z
m116 -2 c10 -12 10 -18 0 -30 -16 -19 -34 -19 -51 1 -11 14 -10 18 6 30 24 18
30 18 45 -1z m154 -2 c9 -23 -12 -43 -24 -23 -5 8 -10 21 -10 28 0 18 27 15
34 -5z m292 2 c16 -13 17 -16 4 -25 -30 -20 -58 -5 -46 25 7 19 17 19 42 0z
m-1774 -17 c-6 -6 -15 -8 -19 -4 -4 4 -1 11 7 16 19 12 27 3 12 -12z m578 -15
c0 -20 -27 -28 -45 -13 -14 11 -14 15 1 31 13 14 20 16 31 8 7 -6 13 -18 13
-26z m-554 0 c-10 -10 -19 5 -10 18 6 11 8 11 12 0 2 -7 1 -15 -2 -18z m38 12
c-4 -8 -8 -15 -10 -15 -2 0 -4 7 -4 15 0 8 4 15 10 15 5 0 7 -7 4 -15z m386
-4 c0 -11 -5 -23 -11 -27 -15 -9 -33 12 -26 30 9 23 37 20 37 -3z m652 7 c6
-17 -1 -38 -13 -38 -5 0 -9 11 -9 25 0 26 14 34 22 13z m496 0 c15 -15 -3 -38
-29 -38 -24 0 -33 18 -19 35 15 18 32 19 48 3z m-1724 -9 c-4 -8 1 -9 17 -5
23 7 23 7 5 -8 -16 -13 -22 -13 -28 -3 -11 17 -10 27 3 27 5 0 7 -5 3 -11z
m1023 -8 c10 -16 9 -22 -3 -32 -12 -10 -18 -9 -31 4 -13 13 -14 19 -3 31 16
21 23 20 37 -3z m547 2 c4 -9 2 -21 -4 -27 -13 -13 -46 17 -36 33 11 16 33 13
40 -6z m270 -2 c17 -18 17 -20 -2 -30 -25 -14 -59 18 -40 37 16 16 22 15 42
-7z m-1457 -8 c-9 -9 -20 -13 -24 -9 -4 4 -1 11 7 16 25 16 35 11 17 -7z m108
7 c3 -5 2 -17 -3 -27 -9 -15 -11 -14 -20 4 -15 27 7 49 23 23z m303 -18 c2
-12 -1 -22 -7 -22 -13 0 -32 35 -24 44 12 12 28 0 31 -22z m111 15 c8 -11 6
-18 -8 -31 -15 -14 -20 -14 -30 -2 -9 11 -8 17 4 30 20 19 20 19 34 3z m240 0
c8 -11 7 -18 -7 -31 -18 -15 -20 -15 -35 2 -13 14 -14 21 -5 30 16 16 33 15
47 -1z m-1069 -6 c0 -9 -24 -21 -42 -21 -6 0 -6 6 2 15 14 16 40 20 40 6z
m170 -1 c0 -5 -4 -10 -10 -10 -5 0 -10 5 -10 10 0 6 5 10 10 10 6 0 10 -4 10
-10z m1143 -36 c-3 -8 -12 -14 -19 -14 -21 0 -28 28 -13 46 12 14 14 14 25 -1
7 -9 10 -23 7 -31z m-1228 17 c-3 -6 -14 -11 -23 -11 -15 1 -15 2 2 15 21 16
32 13 21 -4z m1115 -11 c0 -25 -18 -36 -26 -16 -8 21 3 49 16 41 5 -3 10 -15
10 -25z m228 18 c18 -18 15 -36 -9 -48 -17 -9 -23 -8 -34 7 -11 15 -11 21 2
36 19 20 25 21 41 5z m-1393 -7 c6 -11 -33 -36 -42 -27 -7 7 16 36 28 36 4 0
10 -4 14 -9z m525 -26 c0 -7 -6 -18 -13 -24 -11 -8 -18 -6 -31 8 -16 17 -16
20 0 35 12 13 19 14 30 5 8 -6 14 -17 14 -24z m1018 23 c17 -17 15 -26 -8 -38
-15 -8 -21 -6 -30 10 -18 34 11 55 38 28z m130 -11 c2 -9 -4 -20 -13 -23 -20
-8 -50 19 -40 36 10 17 49 8 53 -13z m-1460 -10 c5 -22 -24 -33 -44 -16 -14
12 -14 14 2 26 22 16 38 12 42 -10z m126 7 c4 -9 1 -23 -5 -31 -10 -11 -15
-11 -30 3 -14 13 -16 20 -8 31 15 18 36 17 43 -3z m306 0 c11 -12 10 -18 -3
-32 -16 -15 -18 -15 -34 0 -13 14 -14 20 -3 32 7 9 16 16 20 16 4 0 13 -7 20
-16z m224 -29 c-9 -21 -36 -27 -53 -11 -13 14 -13 18 4 36 17 19 20 19 36 4
10 -9 15 -22 13 -29z m922 -3 c-12 -13 -18 -13 -30 -2 -9 7 -16 18 -16 25 0
21 23 24 43 7 16 -14 16 -17 3 -30z m-1908 26 c-5 -16 -48 -24 -48 -10 0 11
17 20 38 21 8 1 12 -5 10 -11z m206 3 c7 -11 -20 -48 -29 -39 -9 8 4 48 15 48
5 0 11 -4 14 -9z m885 -5 c15 -18 3 -46 -20 -46 -25 0 -35 26 -19 45 15 19 24
19 39 1z m117 -1 c6 -16 -12 -45 -28 -45 -15 0 -21 30 -8 45 16 19 29 19 36 0z
m-356 -10 c15 -18 6 -45 -14 -45 -16 0 -31 34 -21 50 9 14 21 12 35 -5z m760
-26 c0 -19 -20 -18 -30 1 -15 28 -1 49 17 25 7 -11 13 -22 13 -26z m-266 8
c16 -25 -16 -56 -38 -37 -19 15 -20 32 -4 48 15 15 28 11 42 -11z m96 -31 c-7
-9 -18 -16 -26 -16 -19 0 -28 38 -13 56 11 13 15 13 32 -5 17 -17 18 -22 7
-35z m279 31 c8 -11 6 -18 -9 -32 -20 -18 -21 -18 -38 -1 -16 16 -16 18 2 32
24 17 31 18 45 1z m115 7 c21 -8 20 -40 -1 -48 -9 -4 -23 0 -31 8 -13 12 -13
18 -2 30 14 18 13 18 34 10z m-1260 -19 c6 -17 -2 -45 -14 -45 -15 0 -22 19
-15 40 8 24 21 26 29 5z m134 -17 c-8 -23 -36 -32 -52 -18 -15 12 -15 14 0 31
13 14 21 16 36 8 11 -6 18 -15 16 -21z m853 11 c9 -17 8 -23 -2 -30 -20 -13
-35 -11 -48 5 -9 11 -8 18 4 30 22 21 32 20 46 -5z m-1564 -5 c6 -17 -28 -47
-39 -36 -15 15 1 54 20 50 8 -2 17 -8 19 -14z m263 0 c11 -12 10 -18 -3 -32
-15 -15 -19 -15 -32 -1 -17 17 -11 49 10 49 7 0 18 -7 25 -16z m133 2 c6 -15
-11 -36 -29 -36 -14 0 -23 20 -16 38 6 16 39 15 45 -2z m417 -27 c0 -23 -28
-25 -36 -4 -4 8 -3 22 0 31 5 13 9 14 21 4 8 -7 15 -21 15 -31z m224 -6 c-16
-25 -31 -27 -43 -4 -9 15 -7 23 5 36 15 15 18 15 33 1 12 -12 13 -21 5 -33z
m216 28 c0 -24 -18 -37 -32 -23 -8 8 -7 16 2 27 17 21 30 19 30 -4z m-1102
-26 c-6 -13 -15 -22 -19 -19 -13 7 -11 28 3 42 18 18 28 4 16 -23z m337 10 c0
-10 -5 -20 -11 -22 -13 -4 -27 24 -18 38 9 15 29 4 29 -16z m424 11 c9 -11 10
-20 1 -35 -9 -17 -15 -19 -30 -11 -23 13 -24 14 -8 40 15 24 22 25 37 6z m236
-2 c15 -15 15 -18 -1 -35 -16 -18 -19 -18 -35 -3 -14 13 -16 21 -8 35 12 23
23 24 44 3z m629 -45 c-13 -14 -21 -16 -35 -8 -23 12 -24 17 -2 41 15 17 17
17 35 1 17 -15 17 -18 2 -34z m174 23 c3 -16 -2 -22 -16 -22 -21 0 -36 25 -26
41 10 17 39 5 42 -19z m-563 -29 c-5 -15 -7 -15 -22 0 -14 13 -14 19 -3 32 12
15 14 15 23 0 5 -9 6 -23 2 -32z m261 30 c13 -19 2 -43 -21 -43 -18 0 -27 30
-14 46 15 18 19 18 35 -3z m-161 -13 c9 -28 -13 -54 -31 -39 -17 14 -18 31 -2
47 17 17 26 15 33 -8z m-1435 -9 c0 -29 -24 -45 -40 -26 -10 12 -10 18 0 30
17 21 40 19 40 -4z m395 -1 c9 -28 -13 -54 -31 -39 -17 14 -18 31 -2 47 17 17
26 15 33 -8z m89 -24 c-6 -17 -20 -21 -27 -8 -3 4 0 18 5 32 8 22 11 23 19 8
5 -9 6 -23 3 -32z m95 27 c7 -13 5 -23 -6 -36 -15 -16 -17 -16 -35 0 -17 15
-17 17 -2 35 21 23 30 23 43 1z m130 -2 c8 -14 6 -22 -8 -35 -16 -15 -19 -15
-37 5 -18 20 -18 21 1 35 25 18 32 18 44 -5z m531 0 c0 -23 -16 -36 -25 -21
-9 14 1 40 15 40 5 0 10 -9 10 -19z m588 -8 c2 -12 -4 -23 -13 -27 -32 -12
-48 17 -23 42 17 17 32 10 36 -15z m-1688 1 c11 -12 10 -18 -3 -32 -16 -15
-18 -15 -34 0 -13 14 -14 20 -3 32 7 9 16 16 20 16 4 0 13 -7 20 -16z m134 -1
c4 -9 0 -23 -9 -32 -13 -14 -17 -14 -32 1 -13 14 -14 20 -3 32 16 21 36 20 44
-1z m654 -6 c2 -10 -2 -25 -9 -33 -10 -13 -14 -12 -30 2 -14 13 -16 21 -8 36
12 23 42 20 47 -5z m-1048 -12 c0 -18 -37 -39 -45 -25 -3 5 -13 6 -22 3 -11
-4 -14 -2 -11 8 2 8 17 15 31 17 15 2 27 8 27 13 0 6 5 7 10 4 6 -3 10 -13 10
-20z m930 -11 c0 -22 -22 -28 -36 -9 -18 24 1 52 22 34 8 -6 14 -17 14 -25z
m224 19 c4 -9 0 -23 -9 -32 -13 -14 -17 -14 -32 1 -13 14 -14 20 -3 32 16 21
36 20 44 -1z m123 1 c3 -8 -2 -23 -11 -32 -15 -15 -17 -15 -33 0 -13 14 -14
20 -3 32 16 20 39 20 47 0z m387 0 c7 -19 -1 -34 -19 -34 -15 0 -28 27 -19 41
9 14 31 10 38 -7z m-1484 -25 c0 -23 -27 -36 -42 -21 -14 14 8 53 27 46 8 -4
15 -15 15 -25z m1595 15 c19 -19 4 -44 -26 -44 -27 0 -33 19 -13 41 21 23 19
23 39 3z m-355 -9 c18 -21 -16 -61 -37 -44 -16 14 -17 31 -1 47 16 16 23 15
38 -3z m456 -20 c-3 -8 -10 -15 -16 -15 -14 0 -12 37 3 43 15 5 21 -8 13 -28z
m-382 9 c4 -9 1 -23 -6 -31 -10 -13 -14 -13 -24 2 -14 19 -8 45 11 45 7 0 16
-7 19 -16z m-859 -15 c9 -26 -10 -48 -26 -32 -12 12 -3 53 11 53 5 0 12 -9 15
-21z m125 6 c24 -29 -21 -60 -48 -33 -9 9 -8 16 5 30 20 22 27 22 43 3z m844
-2 c7 -18 -20 -47 -35 -37 -11 6 -12 38 -2 47 12 13 31 7 37 -10z m-1546 -5
c19 -19 -15 -51 -39 -37 -15 8 -17 14 -9 29 12 23 30 26 48 8z m269 -4 c3 -8
-2 -23 -11 -32 -15 -15 -17 -15 -33 0 -13 14 -14 20 -3 32 16 20 39 20 47 0z
m128 -3 c0 -22 -32 -38 -46 -24 -9 9 -9 16 1 28 15 19 45 16 45 -4z m94 -32
l-12 -24 -10 22 c-5 12 -7 30 -3 39 6 16 8 16 22 2 13 -13 14 -20 3 -39z m331
35 c11 -12 10 -18 -4 -32 -16 -16 -18 -16 -31 2 -11 14 -12 23 -4 33 15 17 24
16 39 -3z m210 -5 c9 -15 8 -24 -1 -36 -12 -13 -14 -13 -26 2 -8 13 -9 23 -2
36 12 24 16 24 29 -2z m238 -2 c4 -22 -27 -35 -38 -16 -10 15 7 42 24 36 6 -2
12 -11 14 -20z m656 7 c10 -25 7 -33 -14 -44 -17 -9 -22 -7 -32 15 -10 22 -9
28 3 36 21 13 36 11 43 -7z m-995 -7 c8 -11 6 -18 -9 -32 -19 -17 -22 -17 -37
-2 -13 13 -14 19 -3 31 15 20 34 20 49 3z m227 -2 c7 -17 -12 -45 -31 -45 -18
0 -27 30 -14 46 15 18 38 18 45 -1z m610 -29 c-4 -16 -11 -23 -20 -20 -22 9
-27 32 -9 49 21 21 38 5 29 -29z m-1890 23 c3 -6 -4 -21 -16 -33 -20 -18 -22
-19 -16 -3 3 10 6 25 6 33 0 17 16 19 26 3z m268 2 c3 -4 -3 -16 -14 -26 -20
-18 -25 -11 -14 19 7 18 20 21 28 7z m1506 -7 c11 -12 10 -18 -3 -32 -16 -15
-18 -15 -33 0 -19 18 -12 48 9 48 8 0 20 -7 27 -16z m-250 -30 c0 -27 -15 -32
-24 -9 -7 19 3 47 15 39 5 -3 9 -16 9 -30z m79 8 c11 -20 -2 -42 -25 -42 -18
0 -26 30 -13 46 16 19 26 18 38 -4z m369 -6 c4 -18 -13 -36 -34 -36 -17 0 -26
43 -11 52 19 12 41 5 45 -16z m-2031 -11 c-4 -8 -11 -15 -17 -15 -7 0 -7 6 0
21 13 23 26 19 17 -6z m243 16 c0 -11 -29 -35 -35 -29 -10 9 7 38 21 38 8 0
14 -4 14 -9z m388 -21 c5 -31 -18 -43 -40 -23 -17 15 -17 17 -1 35 21 23 37
19 41 -12z m92 0 c0 -26 -15 -33 -30 -15 -10 12 -10 18 0 30 15 18 30 11 30
-15z m94 7 c8 -13 6 -20 -9 -31 -33 -24 -62 13 -33 42 15 15 28 11 42 -11z
m130 -1 c9 -13 7 -20 -8 -31 -23 -17 -46 -4 -46 25 0 32 36 36 54 6z m546 5
c0 -23 -16 -36 -25 -21 -9 14 1 40 15 40 5 0 10 -9 10 -19z m280 0 c12 -23
-12 -54 -35 -45 -21 9 -26 32 -9 49 20 20 31 19 44 -4z m-1392 -18 c2 -11 -4
-26 -14 -33 -14 -12 -18 -12 -30 5 -12 16 -12 21 3 37 20 22 37 19 41 -9z
m129 11 c3 -8 -2 -23 -11 -32 -15 -15 -17 -15 -33 0 -13 14 -14 20 -3 32 16
20 39 20 47 0z m658 -14 c0 -16 -6 -26 -18 -28 -19 -4 -32 20 -23 44 9 25 41
13 41 -16z m105 -24 c-16 -20 -34 -20 -50 -1 -10 13 -9 19 5 36 19 20 19 20
39 0 16 -17 17 -23 6 -35z m114 48 c20 -8 21 -38 1 -54 -29 -24 -60 21 -33 48
14 14 12 14 32 6z m-1268 -19 c7 -18 -13 -45 -33 -45 -19 0 -28 27 -13 45 16
19 39 19 46 0z m932 -9 c2 -10 -1 -23 -7 -29 -14 -14 -41 20 -34 41 8 19 37
10 41 -12z m843 8 c11 -14 10 -18 -6 -30 -24 -18 -30 -18 -46 2 -11 14 -10 18
6 30 24 18 30 18 46 -2z m243 -41 c-10 -7 -23 -12 -29 -10 -16 6 -18 36 -4 54
12 13 15 13 32 -8 18 -22 18 -24 1 -36z m-2121 13 c-4 -17 0 -25 16 -29 24 -6
27 -29 6 -47 -19 -16 -38 -3 -31 23 3 13 -1 25 -12 33 -14 10 -14 14 -3 28 19
23 29 20 24 -8z m252 -6 c-5 -16 -10 -19 -18 -11 -7 7 -6 15 3 26 17 20 24 13
15 -15z m1279 -22 c-10 -10 -21 -18 -25 -18 -14 0 -21 41 -8 56 10 13 14 12
31 -2 17 -16 17 -18 2 -36z m406 38 c0 -16 -18 -31 -27 -22 -8 8 5 36 17 36 5
0 10 -6 10 -14z m-350 -17 c0 -11 -4 -17 -10 -14 -5 3 -10 13 -10 21 0 8 5 14
10 14 6 0 10 -9 10 -21z m-1045 -39 c-17 -18 -20 -19 -34 -6 -13 14 -13 18 4
36 17 18 20 19 34 6 13 -14 13 -18 -4 -36z m190 30 c8 -24 -1 -40 -21 -40 -15
0 -18 18 -8 44 8 22 21 20 29 -4z m125 10 c18 -11 3 -43 -24 -48 -21 -4 -32
24 -16 43 14 17 20 18 40 5z m124 -37 c-6 -9 -15 -18 -21 -20 -17 -6 -26 36
-12 53 11 13 14 13 28 -1 12 -11 13 -20 5 -32z m466 18 c0 -3 -7 -15 -15 -26
-14 -18 -16 -18 -32 -2 -16 15 -15 18 2 37 14 15 21 17 32 9 7 -6 13 -14 13
-18z m240 10 c0 -11 -5 -23 -11 -27 -16 -9 -30 18 -17 33 15 19 28 16 28 -6z
m363 -3 c7 -27 1 -38 -23 -38 -22 0 -34 28 -19 46 17 21 36 17 42 -8z m-2125
-8 c-13 -20 -28 -27 -28 -12 0 10 22 32 32 32 5 0 3 -9 -4 -20z m232 8 c0 -24
-18 -41 -34 -35 -14 5 -15 11 -6 27 12 22 40 27 40 8z m270 -3 c10 -13 10 -19
-5 -35 -28 -31 -71 4 -44 36 15 18 33 18 49 -1z m239 2 c8 -11 6 -18 -10 -33
-17 -16 -22 -16 -29 -4 -25 39 10 71 39 37z m441 -14 c0 -15 -33 -41 -46 -36
-17 6 -18 35 -2 51 11 11 48 0 48 -15z m85 6 c5 -13 1 -27 -8 -37 -14 -14 -16
-13 -22 11 -11 43 17 67 30 26z m124 -30 c-12 -23 -32 -24 -49 -4 -10 13 -9
19 5 35 17 19 20 19 36 4 14 -13 16 -21 8 -35z m490 4 c-15 -18 -34 -17 -50 3
-11 14 -10 18 6 30 16 12 21 12 37 -3 14 -12 15 -19 7 -30z m-1510 24 c8 -11
6 -18 -8 -31 -31 -28 -58 3 -29 32 15 15 23 15 37 -1z m-429 -17 c0 -5 -5 -10
-11 -10 -5 0 -7 5 -4 10 3 6 8 10 11 10 2 0 4 -4 4 -10z m84 -27 c-15 -24 -34
-28 -34 -6 0 26 21 46 34 33 7 -7 7 -16 0 -27z m1626 22 c0 -18 12 -19 27 -4
15 15 33 3 33 -21 0 -21 -29 -35 -43 -21 -5 5 -16 7 -23 4 -16 -6 -29 20 -20
42 7 19 26 19 26 0z m400 -5 c8 -15 6 -21 -9 -30 -27 -14 -29 -13 -42 11 -9
17 -8 23 2 30 22 14 38 10 49 -11z m-1050 -15 c15 -18 -2 -45 -30 -45 -23 0
-34 28 -19 46 15 18 33 18 49 -1z m557 -1 c8 -21 -13 -42 -28 -27 -13 13 -5
43 11 43 6 0 13 -7 17 -16z m248 -15 c0 -28 -29 -38 -39 -13 -7 19 11 47 28
41 6 -2 11 -14 11 -28z m-1855 7 c0 -16 -18 -31 -27 -22 -8 8 5 36 17 36 5 0
10 -6 10 -14z m812 -21 c-11 -21 -25 -4 -16 20 4 10 10 13 16 7 7 -7 7 -16 0
-27z"/>
<path d="M1970 1632 c0 -10 56 -62 66 -62 4 0 23 -15 44 -32 51 -45 139 -108
151 -108 5 0 9 -4 9 -10 0 -5 6 -10 14 -10 7 0 29 -14 47 -30 19 -17 53 -36
77 -42 23 -7 42 -16 42 -20 0 -4 7 -5 15 -2 8 4 15 1 15 -5 0 -6 7 -11 15 -11
8 0 15 -4 15 -9 0 -6 20 -13 45 -17 25 -3 48 -10 51 -15 10 -16 235 11 260 32
11 9 18 8 29 -1 8 -7 15 -9 15 -4 0 12 77 43 123 51 22 3 34 10 31 18 -3 8 5
10 26 7 26 -4 31 -1 28 13 -2 12 13 26 51 47 59 32 154 103 185 137 28 31 10
26 -37 -12 -64 -50 -127 -80 -142 -67 -9 8 -15 8 -20 0 -3 -5 -19 -10 -34 -10
-15 0 -45 -9 -67 -19 -72 -35 -160 -45 -238 -27 -52 12 -82 14 -129 7 -90 -14
-145 -16 -202 -7 -69 11 -165 39 -165 48 0 4 -13 8 -29 8 -30 0 -183 74 -189
91 -2 5 -9 9 -16 9 -7 0 -25 14 -41 30 -29 30 -45 38 -45 22z"/>
</g>
</svg>
